/* XPM */
static char * Collectable_xpm[] = {
"64 64 34 1",
" 	c #EEA160",
".	c #EEC49F",
"+	c #CF9A71",
"@	c #BF7958",
"#	c #A05B53",
"$	c #A4714C",
"%	c #C98066",
"&	c #B47055",
"*	c #5E3643",
"=	c #5E5648",
"-	c #9D8B73",
";	c #A8B098",
">	c #A0938E",
",	c #756B5A",
"'	c #7A444A",
")	c #CFC6B8",
"!	c #D0D8C0",
"~	c #C2B49F",
"{	c #C0D0A8",
"]	c #FFAEB6",
"^	c #ECC35F",
"/	c #E7E1DA",
"(	c #7D7071",
"_	c #808870",
":	c #808585",
"<	c #F4CCA1",
"[	c #565656",
"}	c #39314B",
"|	c #472D3C",
"1	c #2C2C2C",
"2	c #273C3D",
"3	c #260B2D",
"4	c #302C2E",
"5	c #453F40",
"     ......................+@##$@@@%++++++++++++++++++++++++&##$",
"                            &###&@@@@@@@@@@@@@@@@@@@@@@@@@@&####",
"                            &###&@@@@@@@@@@@@@@@@@@@@@@@@@@&####",
"                            &###&@@@@@@@@@@@@@@@@@@@@@@@@@@&####",
"                            &###&@@@@@@@@@@@@@@@@@@@@@@@@@@&####",
"                            &###&@@@@@@@@@@@@@@@@@@@@@@@@@@&####",
"                            &###&@@@@@@@@@@@@@@@@@@@@@@@@@@&####",
"                            &###&@@@@@@@@@@@@@@@@@@@@@@@@@@&####",
"                            &###&@@@@@@@@@@@@@@@@@@@@@@@@@@&####",
"                            &###&@@@@@@@@@@@@@@@@@@@@@@@@@@&####",
"                            &###&@@@@@@@@@@@@@@@@@@@@@@@@@@&####",
"                            &###&@@@@@@@@@@@@@@@@@@@@@@@@@@&####",
"                            &###&@@@@@@@@@@@@@@@@@@@@@@@@@@&####",
"                            &###&@@@@@@@@@@@@@@@@@@@@@@@@@@&####",
"                            &###&@@@@@@@@@@@@@@@@@@@@@@@@@@&####",
"              ****=-;;;;>,=-;;;;>,,>;;;;-=****@@@@@@@@@@@@@&####",
"              ***'-)!!!!!~-)!!!!!~~!!!!!)-'***@@@@@@@@@@@@@&####",
"              **'#;!!{{{!)~!!{{{!)!!!{{!!;#'**@@@@@@@@@@@@@&####",
"              *'##~].^//].~].^//]~)] ./]]~##'*@@@@@@@@@@@@@&####",
"              *'#&>))))))~>))))))~))))))](&#'*@@@@@@@@@@@@@&####",
"              *'&&_)!!!!!~~!!!!!)>~!!!!!)-&&'*@@@@@@@@@@@@@&####",
"              *'&&;!!{{{!))!!{{!!;)!!{{!!;&&'*@@@@@@@@@@@@@&####",
"              *'&@;].^//]~)] ./]];)] ./]];@&'*@@@@@@@@@@@@@&####",
"              *'&&>))))))~{))))))_))~~~{](&&'*%%%%%%%%%%%%%@&##-",
"+.............*'&&_)!!!!!~:)!!!!!;)!!!!!!>&&'*             %&##-",
".<<<<<<<<<<<<<*'&&;!!{{{!);!!{{{!{!!!{{!!;&&'*              &##-",
".<<<<<<<<<<<<<*'&&;].^//]);].^//]~)] ./]];&&'*              &##-",
"+.............*'&&>)]])])~:)]])])~{]]])]](&&'*             %&##-",
"&%%%%%%%%%%%%%*'&&*(>-((([}(>-((([[->((((*&&'*&&&&&&&&&&&&&&#'',",
"##############*'&&|1122213111222133122211|&&'*##############''''",
"##############*'&&'3312334|33123343332433*&&'*##############''''",
"##############*'&@#*||5||''*||5||'*|4|44|#@&'*&&&&&&&&&&&&&&#'''",
"&&&&&&&&&&&&&&*'% @&@%%%%%%%%%%%%%%%%%%@&@ %'*             %&###",
"@@@@@@@@@@@@@@*'% %@+                  +@% %'*              &###",
"@@@@@@@@@@@@@@|*&@##&@@@@@@@@@@@@@@@@@@&##@&*|              &###",
"@@@@@@@@@@@@@@|*##''####################''##*|              &###",
"@@@@@@@@@@@@@@|*###'#####''''''''''#####'###*|              &###",
"@@@@@@@@@@@@@@|*###'#####||||||||||#####'###*|              &###",
"@@@@@@@@@@@@@@|*###'######&&&&&&&&######'###*|              &###",
"@@@@@@@@@@@@@@|*###'####@          @####'###*|              &###",
"@@@@@@@@@@@@@@|*'#'''###&%++++++++%&###'''#'*|              &###",
"@@@@@@@@@@@@@@|*''''''################''''''*|              &###",
"@@@@@@@@@@@@@@||*****''##############''*****||              &###",
"@@@@@@@@@@@@@@||||||||****************||||||||              &###",
"@@@@@@@@@@@@@@||||||||||||||||||||||||||||||||              &###",
"@@@@@@@@@@@@@@@@@@@@@@@@@@@&###&                            &###",
"@@@@@@@@@@@@@@@@@@@@@@@@@@@&###&                            &###",
"@@@@@@@@@@@@@@@@@@@@@@@@@@@&###&                            &###",
"@@@@@@@@@@@@@@@@@@@@@@@@@@@&###&                            &###",
"@@@@@@@@@@@@@@@@@@@@@@@@@@@&###&                            &###",
"@@@@@@@@@@@@@@@@@@@@@@@@@@@&###&                            &###",
"@@@@@@@@@@@@@@@@@@@@@@@@@@@&###&                            &###",
"@@@@@@@@@@@@@@@@@@@@@@@@@@@&###&                            &###",
"&@@@@@@@@@@@@@@@@@@@@@@@@@@&###&                            &###",
"@@@@@@@@@@@@@@@@@@@@@@@@@@@&###&                            &###",
"@%%%%%%%%%%%%%%%%%%%%%%%%%%@&##@+                          +@###",
"%                          %&##%+..........................+%###",
"                            &##%.<<<<<<<<<<<<<<<<<<<<<<<<<<.%###",
"                            &##%.<<<<<<<<<<<<<<<<<<<<<<<<<<.%###",
"%                          %&##&+..........................+&###",
"&&&&&&&&&&&&&&&&&&&&&&&&&&&&#''#&%%%%%%%%%%%%%%%%%%%%%%%%%%&#'''",
"############################''''############################''''",
"############################''''############################''''",
"&&&&&&&&&&&&&&&&&&&&&&&&&&&&#''##############################'''"};
