/* XPM */
static char * Exit_xpm[] = {
"64 64 653 2",
"  	c #EEA160",
". 	c #EEC49F",
"+ 	c #CF9A71",
"@ 	c #BF7958",
"# 	c #A05B53",
"$ 	c #A4714C",
"% 	c #C98066",
"& 	c #B47055",
"* 	c #CC845A",
"= 	c #B06B56",
"- 	c #9F5A53",
"; 	c #B87257",
"> 	c #CE865A",
", 	c #C67F58",
"' 	c #995A50",
") 	c #8C4F4E",
"! 	c #C68158",
"~ 	c #EFA260",
"{ 	c #D58C5B",
"] 	c #CD855A",
"^ 	c #D98F5C",
"/ 	c #D9905C",
"( 	c #A76254",
"_ 	c #C78059",
": 	c #B16F54",
"< 	c #8D4F4E",
"[ 	c #8E504F",
"} 	c #A05A53",
"| 	c #F1A361",
"1 	c #E3995D",
"2 	c #92594E",
"3 	c #754049",
"4 	c #C17E56",
"5 	c #F0A261",
"6 	c #9E5953",
"7 	c #AF6955",
"8 	c #E69A5F",
"9 	c #C07E56",
"0 	c #78424A",
"a 	c #79444A",
"b 	c #9B5852",
"c 	c #9A5751",
"d 	c #E99D5F",
"e 	c #DC935C",
"f 	c #91584D",
"g 	c #76414A",
"h 	c #B57653",
"i 	c #DE965B",
"j 	c #E0965D",
"k 	c #E0975D",
"l 	c #C07B57",
"m 	c #995651",
"n 	c #A86554",
"o 	c #DE945D",
"p 	c #BB7A55",
"q 	c #79434A",
"r 	c #7A444A",
"s 	c #7F474B",
"t 	c #A76852",
"u 	c #BD7857",
"v 	c #88504C",
"w 	c #744646",
"x 	c #6E4841",
"y 	c #744B43",
"z 	c #8B544C",
"A 	c #8F564D",
"B 	c #774847",
"C 	c #7E464B",
"D 	c #8C524D",
"E 	c #BD7957",
"F 	c #A56752",
"G 	c #A16351",
"H 	c #C07958",
"I 	c #B77356",
"J 	c #874E4C",
"K 	c #633943",
"L 	c #40293B",
"M 	c #4D2E3E",
"N 	c #723F48",
"O 	c #633843",
"P 	c #864E4C",
"Q 	c #623943",
"R 	c #613843",
"S 	c #84504A",
"T 	c #9F6151",
"U 	c #975C4F",
"V 	c #6D4045",
"W 	c #97634B",
"X 	c #BC7F53",
"Y 	c #B27750",
"Z 	c #754845",
"` 	c #774946",
" .	c #BB7A54",
"..	c #9E6050",
"+.	c #7C4649",
"@.	c #88524B",
"#.	c #A66652",
"$.	c #9D6050",
"%.	c #6F4245",
"&.	c #6C4044",
"*.	c #925B4C",
"=.	c #99614D",
"-.	c #814F48",
";.	c #462D3C",
">.	c #452C3C",
",.	c #734048",
"'.	c #50303E",
").	c #B57A51",
"!.	c #E1985C",
"~.	c #744D43",
"{.	c #432B3B",
"].	c #412A3B",
"^.	c #734C42",
"/.	c #E1995C",
"(.	c #7D4949",
"_.	c #432C3C",
":.	c #935D4C",
"<.	c #B57355",
"[.	c #623E40",
"}.	c #643F41",
"|.	c #B57255",
"1.	c #472D3C",
"2.	c #653A43",
"3.	c #7B444A",
"4.	c #744148",
"5.	c #51313E",
"6.	c #B47950",
"7.	c #E0975C",
"8.	c #7B4F45",
"9.	c #53323F",
"0.	c #603C41",
"a.	c #6C4442",
"b.	c #865546",
"c.	c #D78C58",
"d.	c #B36951",
"e.	c #874646",
"f.	c #63303C",
"g.	c #985849",
"h.	c #BC7154",
"i.	c #B26B51",
"j.	c #7B4C45",
"k.	c #6C4243",
"l.	c #935D4B",
"m.	c #E2985D",
"n.	c #8F584D",
"o.	c #754249",
"p.	c #9B5F50",
"q.	c #B87556",
"r.	c #B67053",
"s.	c #B25543",
"t.	c #AA423D",
"u.	c #A63C3C",
"v.	c #A23A3B",
"w.	c #A73F3D",
"x.	c #AB443E",
"y.	c #AD4E42",
"z.	c #B56F53",
"A.	c #844D4B",
"B.	c #653A44",
"C.	c #7B454B",
"D.	c #51323F",
"E.	c #472E3D",
"F.	c #B57951",
"G.	c #E2985E",
"H.	c #93594E",
"I.	c #7A434A",
"J.	c #A26352",
"K.	c #C17B59",
"L.	c #BD7355",
"M.	c #AD4840",
"N.	c #A93A3A",
"O.	c #AA3B3B",
"P.	c #B77357",
"Q.	c #462C3B",
"R.	c #745D5F",
"S.	c #927A78",
"T.	c #907977",
"U.	c #867675",
"V.	c #847674",
"W.	c #A98979",
"X.	c #C79A7E",
"Y.	c #C09077",
"Z.	c #9F534D",
"`.	c #973C40",
" +	c #BE7251",
".+	c #DC935D",
"++	c #DA8A58",
"@+	c #D1543C",
"#+	c #CF4133",
"$+	c #CF4334",
"%+	c #9B4F4D",
"&+	c #AB8175",
"*+	c #AF8A7C",
"=+	c #9B7F78",
"-+	c #462B3B",
";+	c #7D6E6F",
">+	c #9F928E",
",+	c #9F918D",
"'+	c #9E928E",
")+	c #A08985",
"!+	c #A74F4E",
"~+	c #A83638",
"{+	c #CF7C50",
"]+	c #EFA361",
"^+	c #EE995B",
"/+	c #E85C38",
"(+	c #E7462D",
"_+	c #E7482E",
":+	c #452A3A",
"<+	c #8C8076",
"[+	c #B6AB9A",
"}+	c #B5AA99",
"|+	c #B5AB9A",
"1+	c #B5A090",
"2+	c #B85950",
"3+	c #B83935",
"4+	c #D57C4F",
"5+	c #EEA261",
"6+	c #ED985B",
"7+	c #E75C38",
"8+	c #E6462D",
"9+	c #E6482E",
"0+	c #43273A",
"a+	c #B2A98C",
"b+	c #EBE4B8",
"c+	c #EBE3B8",
"d+	c #EBE5B9",
"e+	c #E9D6AC",
"f+	c #E37156",
"g+	c #E14029",
"h+	c #E87E4C",
"i+	c #432639",
"j+	c #B6AE8E",
"k+	c #F1EABC",
"l+	c #F0E9BB",
"m+	c #F0EABC",
"n+	c #EEDBAF",
"o+	c #E87559",
"p+	c #EA814F",
"q+	c #EEA363",
"r+	c #ED9A5D",
"s+	c #E75F3C",
"t+	c #E64B32",
"u+	c #E64D33",
"v+	c #B6AD8E",
"w+	c #EAE3B8",
"x+	c #CBC2A5",
"y+	c #C4BAA1",
"z+	c #C4BBA1",
"A+	c #C4BBA2",
"B+	c #CBBBA0",
"C+	c #E7BF9A",
"D+	c #EDBF98",
"E+	c #EEC89C",
"F+	c #EFD1A0",
"G+	c #EFCF9F",
"H+	c #EDC299",
"I+	c #ECBF98",
"J+	c #B7AE8F",
"K+	c #F3ECBD",
"L+	c #E7E0B6",
"M+	c #ACA094",
"N+	c #9A8C8B",
"O+	c #9C8E8C",
"P+	c #ABA094",
"Q+	c #E7E1B7",
"R+	c #F1ECBD",
"S+	c #F0EBBC",
"T+	c #F0EBBD",
"U+	c #44283A",
"V+	c #ABA187",
"W+	c #E1DAB2",
"X+	c #DBD3AE",
"Y+	c #BEB49E",
"Z+	c #B7AC9A",
"`+	c #B7AD9A",
" @	c #C1B7A0",
".@	c #E9E2B7",
"+@	c #F1EABB",
"@@	c #452B3B",
"#@	c #827571",
"$@	c #A69A91",
"%@	c #B3A898",
"&@	c #E3DCB4",
"*@	c #ECE5B9",
"=@	c #ECE4B8",
"-@	c #EFE8BB",
";@	c #7F706F",
">@	c #A1948F",
",@	c #B0A596",
"'@	c #EFE8BA",
")@	c #A59B84",
"!@	c #D8D0AD",
"~@	c #DCD3AF",
"{@	c #EDE6B9",
"]@	c #EAE3B7",
"^@	c #C9C0A4",
"/@	c #C2B8A0",
"(@	c #9D8B73",
"_@	c #F2EBBC",
":@	c #E8E0B6",
"<@	c #ADA296",
"[@	c #9C908D",
"}@	c #9D928E",
"|@	c #9C928E",
"1@	c #F4CCA1",
"2@	c #EEE6BA",
"3@	c #E1D9B2",
"4@	c #DED6B0",
"5@	c #DFD7B1",
"6@	c #D7CDAA",
"7@	c #AD9287",
"8@	c #A1817D",
"9@	c #A2837E",
"0@	c #A5837E",
"a@	c #B4847D",
"b@	c #B6847D",
"c@	c #AD837E",
"d@	c #A49890",
"e@	c #A69991",
"f@	c #A69A92",
"g@	c #A69189",
"h@	c #A85754",
"i@	c #A94141",
"j@	c #A84443",
"k@	c #A74343",
"l@	c #B24542",
"m@	c #DC4D3A",
"n@	c #E44F39",
"o@	c #E34E39",
"p@	c #E34F39",
"q@	c #C8493E",
"r@	c #A84141",
"s@	c #432739",
"t@	c #B4AC8D",
"u@	c #E5DDB4",
"v@	c #ADA194",
"w@	c #9D8F8B",
"x@	c #9F918C",
"y@	c #A0928D",
"z@	c #A18984",
"A@	c #A84E4D",
"B@	c #A93838",
"C@	c #AA3B3A",
"D@	c #B53D38",
"E@	c #DF462F",
"F@	c #E7482D",
"G@	c #E6482D",
"H@	c #CC4234",
"I@	c #AB3838",
"J@	c #AA4F4D",
"K@	c #A28984",
"L@	c #A0918C",
"M@	c #9F8F8B",
"N@	c #AEA194",
"O@	c #93887A",
"P@	c #C0B6A0",
"Q@	c #B7AC98",
"R@	c #86726E",
"S@	c #775F62",
"T@	c #926262",
"U@	c #A66361",
"V@	c #A75E5C",
"W@	c #A94242",
"X@	c #C04037",
"Y@	c #D54433",
"Z@	c #D74532",
"`@	c #E4472F",
" #	c #DE4630",
".#	c #D54432",
"+#	c #CF493C",
"@#	c #AE5F5B",
"##	c #A56361",
"$#	c #A66360",
"%#	c #A6615F",
"&#	c #AA736C",
"*#	c #BCAC98",
"=#	c #756B5A",
"-#	c #A0938F",
";#	c #978986",
">#	c #674A51",
",#	c #572F3F",
"'#	c #88343C",
")#	c #A83738",
"!#	c #A83838",
"~#	c #A93A3B",
"{#	c #A83B3B",
"]#	c #CB4235",
"^#	c #E8482E",
"/#	c #E0462F",
"(#	c #B43A36",
"_#	c #A93738",
":#	c #A93535",
"<#	c #A84D4C",
"[#	c #A08986",
"}#	c #9F938F",
"|#	c #736263",
"1#	c #91817E",
"2#	c #8E7977",
"3#	c #7E484D",
"4#	c #79363F",
"5#	c #A13B3C",
"6#	c #BE3F37",
"7#	c #BB3F38",
"8#	c #AC3C3B",
"9#	c #DF4630",
"0#	c #B33D39",
"a#	c #A93B3B",
"b#	c #A93939",
"c#	c #A64A49",
"d#	c #947977",
"e#	c #90817F",
"f#	c #563642",
"g#	c #613E48",
"h#	c #6F3D46",
"i#	c #9F3B3D",
"j#	c #A73B3B",
"k#	c #C84235",
"l#	c #E5482E",
"m#	c #DD4631",
"n#	c #A13B3D",
"o#	c #703D46",
"p#	c #5C3643",
"q#	c #6D3642",
"r#	c #A13A3C",
"s#	c #B63E39",
"t#	c #AB3B3B",
"u#	c #E4482F",
"v#	c #533240",
"w#	c #5D3643",
"x#	c #6D3742",
"y#	c #D94532",
"z#	c #D64432",
"A#	c #BD3F38",
"B#	c #C44136",
"C#	c #E1472F",
"D#	c #C14037",
"E#	c #CA4235",
"F#	c #A43A3C",
"G#	c #B13D3A",
"H#	c #D44433",
"I#	c #BF3F37",
"J#	c #C64136",
"K#	c #E4482E",
"L#	c #BF4037",
"M#	c #D34433",
"N#	c #E3472F",
"O#	c #53313F",
"P#	c #B53D39",
"Q#	c #51323E",
"R#	c #5B3641",
"S#	c #633944",
"T#	c #713A43",
"U#	c #A13D3E",
"V#	c #A93E3D",
"W#	c #A73C3C",
"X#	c #B03D3A",
"Y#	c #DB4631",
"Z#	c #91534E",
"`#	c #92534F",
" $	c #935450",
".$	c #96544F",
"+$	c #A0554E",
"@$	c #A3554E",
"#$	c #8E4848",
"$$	c #743741",
"%$	c #823840",
"&$	c #B23D3A",
"*$	c #BA3E38",
"=$	c #D24333",
"-$	c #A15C53",
";$	c #9F5953",
">$	c #A05C53",
",$	c #A15C54",
"'$	c #824A4C",
")$	c #533042",
"!$	c #663241",
"~$	c #9D363B",
"{$	c #A6363A",
"]$	c #C93E34",
"^$	c #E6452C",
"/$	c #824A4B",
"($	c #A05C54",
"_$	c #A25C54",
":$	c #B36D56",
"<$	c #C47D58",
"[$	c #BD7757",
"}$	c #9B5A51",
"|$	c #925250",
"1$	c #9F6350",
"2$	c #A97050",
"3$	c #AE704F",
"4$	c #C4714C",
"5$	c #C8714C",
"6$	c #D97349",
"7$	c #E97546",
"8$	c #A56651",
"9$	c #A66154",
"0$	c #BF7858",
"a$	c #AD6A54",
"b$	c #925350",
"c$	c #935350",
"d$	c #76404A",
"e$	c #BF7D56",
"f$	c #AE6955",
"g$	c #E5995E",
"h$	c #9D5952",
"i$	c #9C5952",
"j$	c #C98259",
"k$	c #EC9F60",
"l$	c #DF955D",
"m$	c #764049",
"n$	c #BA7A54",
"o$	c #E69C5E",
"p$	c #E69B5E",
"q$	c #E79C5E",
"r$	c #C68058",
"s$	c #9B5752",
"t$	c #AB6754",
"u$	c #E2975E",
"v$	c #BD7C55",
"w$	c #78434A",
"x$	c #834A4C",
"y$	c #82494C",
"z$	c #AC6B53",
"A$	c #CB845A",
"B$	c #C17C58",
"C$	c #89514C",
"D$	c #7F4E48",
"E$	c #845845",
"F$	c #885947",
"G$	c #99604E",
"H$	c #9D624F",
"I$	c #845745",
"J$	c #845149",
"K$	c #82484C",
"L$	c #90554E",
"M$	c #C27D58",
"N$	c #A86952",
"O$	c #C07A58",
"P$	c #874F4C",
"Q$	c #623843",
"R$	c #3C263B",
"S$	c #492C3D",
"T$	c #713E48",
"U$	c #78414A",
"V$	c #77414A",
"W$	c #75414A",
"X$	c #623743",
"Y$	c #683C45",
"Z$	c #683B44",
"`$	c #8C554C",
" %	c #A86853",
".%	c #9F6251",
"+%	c #744447",
"@%	c #673B44",
"#%	c #5E3742",
"$%	c #51313F",
"%%	c #553340",
"&%	c #693C45",
"*%	c #6F3C44",
"=%	c #8B4044",
"-%	c #914044",
";%	c #7E3E44",
">%	c #7B454A",
",%	c #754248",
"'%	c #5D3442",
")%	c #5A3341",
"!%	c #4A2E3D",
"~%	c #442D3C",
"{%	c #5D2F3C",
"]%	c #9F383A",
"^%	c #AA3A3A",
"/%	c #84343B",
"(%	c #452D3C",
"_%	c #462C3C",
":%	c #593B46",
"<%	c #68474F",
"[%	c #64444D",
"}%	c #523440",
"|%	c #4E2F3D",
"1%	c #4E303E",
"2%	c #4C2F3D",
"3%	c #62353F",
"4%	c #9F4747",
"5%	c #A94B49",
"6%	c #853F44",
"7%	c #4D303D",
"8%	c #776768",
"9%	c #978985",
"0%	c #92807D",
"a%	c #785054",
"b%	c #723F46",
"c%	c #7B5053",
"d%	c #9C817D",
"e%	c #A38984",
"f%	c #8D6C6B",
"g%	c #723F47",
"h%	c #7D6F6F",
"i%	c #A09490",
"j%	c #9B8B87",
"k%	c #815558",
"l%	c #7A4249",
"m%	c #805558",
"n%	c #9A8B87",
"o%	c #9F9490",
"p%	c #8E7473",
"q%	c #7A4349",
"r%	c #43293A",
"s%	c #9C8475",
"t%	c #CDB198",
"u%	c #C3A68F",
"v%	c #8A5E5A",
"w%	c #784148",
"x%	c #A98878",
"y%	c #794249",
"z%	c #42283A",
"A%	c #BA997C",
"B%	c #F7CFA3",
"C%	c #E9C199",
"D%	c #95675D",
"E%	c #784048",
"F%	c #C59C80",
"G%	c #794149",
"H%	c #B09076",
"I%	c #E9C39A",
"J%	c #DCB691",
"K%	c #8D625A",
"L%	c #733E47",
"M%	c #BA9479",
"N%	c #743F47",
"O%	c #664D4B",
"P%	c #7C6258",
"Q%	c #775C54",
"R%	c #593B43",
"S%	c #52323F",
"T%	c #694E4C",
"U%	c #52313E",
"V%	c #754148",
"W%	c #3F2439",
"X%	c #412539",
"Y%	c #583440",
"Z%	c #663A44",
"`%	c #6F4543",
" &	c #8A5649",
".&	c #8A5549",
"+&	c #7C4848",
"@&	c #643943",
"#&	c #986053",
"$&	c #996154",
"%&	c #794C49",
"&&	c #7E4849",
"*&	c #7D4849",
"          . . . . . . . . . . . . . . . . . . . . . . + @ # # $ @ @ @ % + + + + + + + + + + + + + + + + + + + + + + + + & # # $ ",
"                        # # # # # # # *                 & # # # & @ @ @ @ @ @ @ @ @ @ @ = # # # # # # # @ @ @ @ @ @ @ & # # # # ",
"                        # # # - - # # *                 & # # # & @ @ @ @ @ @ @ @ @ @ @ = # # - - # # # @ @ @ @ @ @ @ & # # # # ",
"                        # # ; > , ' ) ! ~               { ] ] ] { ^ ^ ^ ^ ^ ^ ^ ^ ^ ^ / @ - ( _ > : < [ @ @ @ @ @ @ @ & # # # # ",
"                        # } ] | 1 2 3 4 5 ~ ~ ~ ~ ~ ~ ~ ~ ~ ~ ~ ~ ~ ~ ~ ~ ~ ~ ~ ~ ~ ~ 5 ] 6 7 8 | 9 0 a @ @ @ @ @ @ @ & # # # # ",
"                        b c , d e f g h i i j k k k k k k k k k k k k k k k k k k j i i l m n o d p q r @ @ @ @ @ @ @ & # # # # ",
"                        s s t _ u v q w x y z A A A A A A A A A A A A A A A A A A z y x B C D E _ F q r @ @ @ @ @ @ @ & # # # # ",
"                        r q G H I J q K L M N 0 0 0 0 0 0 0 0 0 0 0 0 0 0 0 0 0 0 N M L O q P I H G q r @ @ @ @ @ @ @ & # # # # ",
"                        Q R S T U V R W X Y Z Q Q Q `  ...+.Q Q Q Q @.#.$.%.Q Q Q &.*.=.-.R V U T S R Q @ @ @ @ @ @ @ & # # # # ",
"                        ;.>.K q ,.'.>.).  !.~.>.{.].^./.& (._._._._.:.@ <.[.].{.>.}.|.@ :.>.'.,.q K >.;.@ @ @ @ @ @ @ & # # # # ",
"                        1.;.2.3.4.5.;.6.  7.8.9.0.a.b.c.d.e.f.f.f.f.g.h.i.j.a.0.9.k.|.@ l.;.5.4.3.2.;.1.@ @ @ @ @ @ @ & # # # # ",
"                        1.;.2.3.4.5.;.6.  m.n.o.p.q.r.s.t.u.v.v.v.v.w.x.y.z.q.p.o.A.I @ :.;.5.4.3.2.;.1.@ @ @ @ @ @ @ & # # # # ",
"                        1.;.B.C.o.D.E.F.  G.H.I.J.K.L.M.N.O.O.O.O.O.O.N.M.L.K.J.I.J P.@ :.E.D.o.C.B.;.1.@ @ @ @ @ @ @ & # # # # ",
"                        1.Q.R.S.T.U.V.W.X.Y.Z.`. +.+++@+#+$+$+$+$+$+$+#+@+++.+ +`.%+&+*+=+V.U.T.S.R.Q.1.@ @ @ @ @ @ @ & # # # # ",
"                        1.-+;+>+>+>+>+,+'+)+!+~+{+]+^+/+(+_+_+_+_+_+_+(+/+^+]+{+~+!+)+'+,+>+>+>+>+;+-+1.@ @ @ @ @ @ @ & # # # # ",
"                        1.:+<+[+}+}+}+}+|+1+2+3+4+5+6+7+8+9+9+9+9+9+9+8+7+6+5+4+3+2+1+|+}+}+}+}+[+<+:+1.@ @ @ @ @ @ @ & # # # # ",
"                        1.0+a+b+c+c+c+c+d+e+f+g+h+5+6+7+8+9+9+9+9+9+9+8+7+6+5+h+g+f+e+d+c+c+c+c+b+a+0+1.@ @ @ @ @ @ @ & # # # # ",
"                        1.i+j+k+l+l+l+l+m+n+o+8+p+q+r+s+t+u+u+u+u+u+u+t+s+r+q+p+8+o+n+m+l+l+l+l+k+j+i+1.@ @ @ @ @ @ @ & # # # # ",
"                        1.i+v+k+w+x+y+z+A+B+C+D+E+F+G+H+I+I+I+I+I+I+I+I+H+G+F+E+D+C+B+A+z+y+x+w+k+v+i+1.@ @ @ @ @ @ @ & # # # # ",
"                        1.i+J+K+L+M+N+O+N+P+Q+R+m+m+m+S+T+S+S+S+S+S+S+T+S+m+m+m+R+Q+P+N+O+N+M+L+K+J+i+1.@ @ @ @ @ @ @ & # # # # ",
"                        1.U+V+W+X+Y+Z+`+Z+ @.@+@l+l+l+l+l+l+l+l+l+l+l+l+l+l+l+l++@.@ @Z+`+Z+Y+X+W+V+U+1.@ @ @ @ @ @ @ & # # # # ",
"                        1.@@#@$@%@&@*@=@=@*@-@l+l+l+l+l+l+l+l+l+l+l+l+l+l+l+l+l+l+-@*@=@=@*@&@%@$@#@@@1.@ @ @ @ @ @ @ & # # # # ",
"                        1.-+;@>@,@L+k+l+l+l+'@'@'@'@'@'@'@'@'@'@'@'@'@'@'@'@'@'@'@'@l+l+l+k+L+,@>@;@-+1.@ @ @ @ @ @ @ & # # # # ",
"                        1.U+)@!@~@{@l+l++@]@^@ @/@/@/@/@/@/@/@/@/@/@/@/@/@/@/@/@ @^@]@+@l+l+{@~@!@)@U+1.% % % % % % % @ & # # (@",
"+ . . . . . . . . . . . 1.i+J+_@k+k+k+k+_@:@<@[@'+'+}@|@|@|@|@|@|@|@|@|@|@|@|@}@[@<@:@_@k+k+k+k+_@J+i+1.              % & # # (@",
". 1@1@1@1@1@1@1@1@1@1@1@1.i+v+k+2@3@4@4@5@6@7@8@9@9@0@a@b@b@b@b@b@b@b@b@b@b@b@c@8@7@6@5@4@4@3@2@k+v+i+1.                & # # (@",
". 1@1@1@1@1@1@1@1@1@1@1@1.i+j+_@L+%@d@e@f@g@h@i@j@k@l@m@n@o@o@o@o@o@o@o@o@o@p@q@r@h@g@f@e@d@%@L+_@j+i+1.                & # # (@",
"+ . . . . . . . . . . . 1.s@t@l+u@v@w@x@y@z@A@B@C@C@D@E@F@G@G@G@G@G@G@G@G@G@F@H@I@J@K@y@L@M@N@u@l+t@s@1.              % & # # (@",
"& % % % % % % % % % % % 1.:+O@P@Q@R@S@T@U@V@W@N.X@Y@Z@`@9+9+9+9+9+9+9+9+9+9+9+ #.#+#@###$#%#&#*#P@O@:+1.& & & & & & & & # r r =#",
"# # # # # # # # # # # # 1.-+;+-#;#>#,#'#)#!#~#{#]#_+_+9+9+9+9+9+9+9+9+9+9+9+9+_+^#/#(#)#_#:#<#[#}#;+-+1.# # # # # # # # r r r r ",
"# # # # # # # # # # # # 1.Q.|#1#2#3#4#5#6#7#8#{#]#9+9+9+9+9+9+9+9+9+9+9+9+9+9+9+_+9#0#{#a#b#c#d#e#|#Q.1.# # # # # # # # r r r r ",
"# # # # # # # # # # # # 1.1.f#g#h#i#j#k#l#m#0#j#]#_+9+9+9+9+9+9+9+9+9+9+9+9+9+9+_+9#0#{#a#O.n#o#g#f#1.1.& & & & & & & & # r r r ",
"& & & & & & & & & & & & 1.1.9.p#q#r#a#]#_+9#s#t#]#u#u#9+9+9+9+9+9+9+9+9+9+9+9+9+_+9#s#t#t#O.r#q#p#9.1.1.              % & # # # ",
"@ @ @ @ @ @ @ @ @ @ @ @ 1.1.v#w#x#r#a#]#_+u#y#z#]#A#B#C#9+9+9+9+9+9+9+9+9+9+9+9+9+u#y#z#D#a#r#x#w#v#1.1.                & # # # ",
"@ @ @ @ @ @ @ @ @ @ @ @ 1.1.v#w#x#r#a#]#9+9+_+^#E#F#G# #_+9+9+9+9+9+9+9+9+9+9+9+9+9+_+_+]#a#r#x#w#v#1.1.                & # # # ",
"@ @ @ @ @ @ @ @ @ @ @ @ 1.1.v#w#x#r#a#]#9+9+9+9+H#I#J#C#9+9+9+9+9+9+9+9+9+9+9+9+9+9+9+9+]#a#r#x#w#v#1.1.                & # # # ",
"@ @ @ @ @ @ @ @ @ @ @ @ 1.1.v#w#x#r#a#]#9+9+9+9+l#K#l#9+9+9+9+9+9+9+9+9+9+9+9+9+9+9+9+9+]#a#r#x#w#v#1.1.                & # # # ",
"@ @ @ @ @ @ @ @ @ @ @ @ 1.1.v#w#x#r#a#]#9+9+9+9+9+9+9+9+9+9+9+9+9+9+9+9+9+9+9+9+9+9+9+9+]#a#r#x#w#v#1.1.                & # # # ",
"@ @ @ @ @ @ @ @ @ @ @ @ 1.1.v#w#x#r#a#]#9+9+9+9+9+9+9+9+9+9+9+9+9+9+9+9+9+9+9+9+9+9+9+9+]#a#r#x#w#v#1.1.                & # # # ",
"@ @ @ @ @ @ @ @ @ @ @ @ 1.1.v#w#x#r#a#]#_+_+9+9+9+9+9+9+9+9+9+9+9+9+9+9+9+9+9+9+9+9+_+_+]#a#r#x#w#v#1.1.                & # # # ",
"@ @ @ @ @ @ @ @ @ @ @ @ 1.1.v#w#x#r#a#L#M#z#N#9+9+9+9+9+9+9+9+9+9+9+9+9+9+9+9+9+9+N#z#M#L#a#r#x#w#v#1.1.                & # # # ",
"@ @ @ @ @ @ @ @ @ @ @ @ ;.;.O#p#q#r#O.O.O.P#9#_+9+9+9+9+9+9+9+9+9+9+9+9+9+9+9+9+_+9#P#O.O.O.r#q#p#O#;.;.                & # # # ",
"@ @ @ @ @ @ @ @ @ @ @ @ Q#Q#R#S#T#U#V#W#F#X#Y#N#u#9+9+9+9+9+9+9+9+9+9+9+9+9+9+u#N#Y#X#F#W#V#U#T#S#R#Q#Q#                & # # # ",
"@ @ @ @ @ @ @ @ @ @ @ @ Z#Z#`# $.$+$@$#$$$%$&$*$=$9+9+9+9+9+9+9+9+9+9+9+9+9+9+=$*$&$%$$$#$@$+$.$ $`#Z#Z#                & # # # ",
"@ @ @ @ @ @ @ @ @ @ @ @ -$-$# ;$- >$,$'$)$!$~${$]$^$^$^$^$^$^$^$^$^$^$^$^$^$^$]${$~$!$)$/$($# - ;$# _$_$                & # # # ",
"@ @ @ @ @ @ @ @ @ @ @ @ # # :$<$[$}$|$1$2$3$4$5$6$7$7$7$7$7$7$7$7$7$7$7$7$7$7$6$5$4$3$2$8$- 9$0$<$a$b$c$                & # # # ",
"@ @ @ @ @ @ @ @ @ @ @ @ # - * ~ m.H.d$e$                                                * 6 f$g$~ e$q 3.                & # # # ",
"@ @ @ @ @ @ @ @ @ @ @ @ h$i$j$k$l$f m$n$o$p$q$q$q$q$q$q$q$q$q$q$q$q$q$q$q$q$q$q$q$q$p$o$r$s$t$u$k$v$w$r                 & # # # ",
"@ @ @ @ @ @ @ @ @ @ @ @ x$y$z$A$B$C$0 D$E$F$G$H$H$H$H$H$H$H$H$H$H$H$H$H$H$H$H$H$H$G$F$I$J$K$L$M$A$N$q r                 & # # # ",
"@ @ @ @ @ @ @ @ @ @ @ @ r q G O$I P$I.Q$R$S$T$U$V$V$V$g W$g V$V$V$V$g W$g V$V$V$U$T$S$R$X$q J I O$G r 3.                & # # # ",
"@ @ @ @ @ @ @ @ @ @ @ @ Y$Z$`$ %.%+%@%#%$%%%B.&%Y$Y$*%=%-%;%Y$Y$Y$Y$;%-%=%*%Y$Y$&%B.%%$%#%@%+%.% %`$Z$Y$                & # # # ",
"@ @ @ @ @ @ @ @ @ @ @ @ 1.1.2.>%,%5.;.O#'%)%!%;.1.~%{%]%^%/%(%1.1.(%/%^%]%{%~%1.;.!%)%'%O#;.5.,%>%2.1.1.                & # # # ",
"@ @ @ @ @ @ @ @ @ @ @ @ 1.;.2.3.4.5._%:%<%[%}%|%1%2%3%4%5%6%7%1%1%7%6%5%4%3%2%1%|%}%[%<%:%_%5.4.3.2.;.1.                & # # # ",
"& @ @ @ @ @ @ @ @ @ @ @ 1.;.2.3.4.5.@@8%9%0%a%b%,.b%c%d%e%f%g%,.,.g%f%e%d%c%b%,.b%a%0%9%8%@@5.4.3.2.;.1.                & # # # ",
"@ @ @ @ @ @ @ @ @ @ @ @ 1.;.2.3.4.5.:+h%i%j%k%l%3.l%m%n%o%p%q%3.3.q%p%o%n%m%l%3.l%k%j%i%h%:+5.4.3.2.;.1.                & # # # ",
"@ % % % % % % % % % % % 1.;.2.3.4.5.r%s%t%u%v%w%r w%v%u%t%x%y%r r y%x%t%u%v%w%r w%v%u%t%s%r%5.4.3.2.;.1.              + @ # # # ",
"%                       1.;.2.3.4.5.z%A%B%C%D%E%r E%D%C%B%F%G%r r G%F%B%C%D%E%r E%D%C%B%A%z%5.4.3.2.;.1.. . . . . . . + % # # # ",
"                        1.;.2.3.4.5.z%H%I%J%K%L%,%L%K%J%I%M%N%,%,%N%M%I%J%K%L%,%L%K%J%I%H%z%5.4.3.2.;.1.1@1@1@1@1@1@1@. % # # # ",
"                        1.;.2.3.4.5.>.O%P%Q%R%5.S%5.R%Q%P%T%U%S%S%U%T%P%Q%R%5.S%5.R%Q%P%O%>.5.4.3.2.;.1.1@1@1@1@1@1@1@. % # # # ",
"%                       1.;.2.>%V%5.;.r%W%X%@@;.;.;.@@X%W%r%;.;.;.;.r%W%X%@@;.;.;.@@X%W%r%;.5.V%>%2.;.1.. . . . . . . + & # # # ",
"& & & & & & & & & & & & 1.1.Y%Z%Q$2%;.`% &.&.&.&.&.&.&.&+&@&@&+&.&#&#&#&#&#&#&#&#&#&#&$&%&;.2%Q$Z%Y%1.1.% % % % % % % & # r r r ",
"# # # # # # # # # # # # 1.1.1.;.1.1.1.&&# # # # # # # # r r r r # # # # # # # # # # # # &&1.1.1.;.1.1.1.# # # # # # # # r r r r ",
"# # # # # # # # # # # # 1.1.1.1.1.1.1.*&# # # # # # # # r r r r # # # # # # # # # # # # *&1.1.1.1.1.1.1.# # # # # # # # r r r r ",
"& & & & & & & & & & & & & & & & & & & & & & & & & & & & # r r # # # # # # # # # # # # # # # # # # # # # # # # # # # # # # r r r "};
