/* XPM */
static char * Player_Up_xpm[] = {
"64 64 683 2",
"  	c #EEA160",
". 	c #EEC49F",
"+ 	c #DEB999",
"@ 	c #BAA18C",
"# 	c #A39285",
"$ 	c #A19184",
"% 	c #97887E",
"& 	c #7A726D",
"* 	c #6E6C69",
"= 	c #6D6C69",
"- 	c #776F6C",
"; 	c #8B7671",
"> 	c #958277",
", 	c #948177",
"' 	c #A78975",
") 	c #C39573",
"! 	c #CF9A71",
"~ 	c #B47055",
"{ 	c #A05B53",
"] 	c #A4714C",
"^ 	c #E99F61",
"/ 	c #DD9A64",
"( 	c #D79765",
"_ 	c #D69665",
": 	c #C69371",
"< 	c #A28D84",
"[ 	c #8A8A8D",
"} 	c #8A8A8C",
"| 	c #8D8D90",
"1 	c #949497",
"2 	c #97979A",
"3 	c #98989A",
"4 	c #958583",
"5 	c #A67C6E",
"6 	c #AF7760",
"7 	c #AF775F",
"8 	c #B4785E",
"9 	c #BC795A",
"0 	c #BF7958",
"a 	c #DD9A65",
"b 	c #B98C6E",
"c 	c #A18272",
"d 	c #A08373",
"e 	c #A38E85",
"f 	c #A6A0A0",
"g 	c #A8A8AC",
"h 	c #A9A9AD",
"i 	c #B1B1B4",
"j 	c #BEBEC2",
"k 	c #C5C6C9",
"l 	c #C6C6C9",
"m 	c #C5C5C9",
"n 	c #A29EA0",
"o 	c #958684",
"p 	c #8D7771",
"q 	c #8D7670",
"r 	c #9D776B",
"s 	c #B4785F",
"t 	c #A3A3A6",
"u 	c #B7B7BB",
"v 	c #C3C3C7",
"w 	c #CACACD",
"x 	c #D3D3D6",
"y 	c #DEDEE1",
"z 	c #E4E4E6",
"A 	c #E4E4E7",
"B 	c #A38E84",
"C 	c #B0B0B4",
"D 	c #C8C8CB",
"E 	c #CECED2",
"F 	c #DADADD",
"G 	c #E8E8EA",
"H 	c #F1F1F2",
"I 	c #F5F5F6",
"J 	c #F6F6F7",
"K 	c #F7F7F7",
"L 	c #958683",
"M 	c #EA9F61",
"N 	c #C69372",
"O 	c #959597",
"P 	c #CACACE",
"Q 	c #DBDBDF",
"R 	c #E3E3E6",
"S 	c #EBEBED",
"T 	c #F8F8F9",
"U 	c #FFFFFF",
"V 	c #948583",
"W 	c #BC7859",
"X 	c #A5A0A0",
"Y 	c #DCDCDF",
"Z 	c #EEEEEF",
"` 	c #F9F9F9",
" .	c #FDFDFD",
"..	c #9A9A9E",
"+.	c #B4B4B8",
"@.	c #C7C7CB",
"#.	c #D3D3D7",
"$.	c #E1E1E4",
"%.	c #A67C6D",
"&.	c #C8C8CC",
"*.	c #D8D8DC",
"=.	c #E1E1E5",
"-.	c #EFEFF1",
";.	c #C69472",
">.	c #9B9B9E",
",.	c #A67D6E",
"'.	c #D79766",
").	c #A18372",
"!.	c #A9A9AC",
"~.	c #C1C1C5",
"{.	c #D1D1D5",
"].	c #D9D9DD",
"^.	c #8E7771",
"/.	c #D69666",
"(.	c #D2D2D6",
"_.	c #A8A9AD",
":.	c #C0C1C5",
"<.	c #A89081",
"[.	c #B4A698",
"}.	c #C4BCB5",
"|.	c #D2D0D0",
"1.	c #D9D9DE",
"2.	c #EFEFF0",
"3.	c #B0A498",
"4.	c #9B8980",
"5.	c #E99E62",
"6.	c #D29A64",
"7.	c #C8A166",
"8.	c #C9B491",
"9.	c #D4CDC6",
"0.	c #BE9A64",
"a.	c #B58560",
"b.	c #BB785B",
"c.	c #E6A054",
"d.	c #D39F31",
"e.	c #CAAD74",
"f.	c #CEC5BA",
"g.	c #D3D3D8",
"h.	c #D7D8DC",
"i.	c #C6952C",
"j.	c #C2834C",
"k.	c #E5A054",
"l.	c #D29E31",
"m.	c #C5A768",
"n.	c #C2B8AB",
"o.	c #C5952C",
"p.	c #E89D5E",
"q.	c #DB945A",
"r.	c #CC8E4D",
"s.	c #BD8F3A",
"t.	c #B7985D",
"u.	c #BAA98F",
"v.	c #C1BAB2",
"w.	c #CCCACA",
"x.	c #D7D7DC",
"y.	c #B28737",
"z.	c #AD7647",
"A.	c #B07053",
"B.	c #BA7657",
"C.	c #AF774E",
"D.	c #8E6646",
"E.	c #8C6B47",
"F.	c #9E7F4E",
"G.	c #B7985E",
"H.	c #C2AC86",
"I.	c #C2BAB2",
"J.	c #D8D8DD",
"K.	c #886746",
"L.	c #7E5944",
"M.	c #905E49",
"N.	c #D38F58",
"O.	c #8F6346",
"P.	c #564242",
"Q.	c #68504E",
"R.	c #896A4D",
"S.	c #AB8843",
"T.	c #BA9C63",
"U.	c #BCAB91",
"V.	c #C8BDAB",
"W.	c #DBD0BA",
"X.	c #E0D7C7",
"Y.	c #D6D3D1",
"Z.	c #D0D0D5",
"`.	c #D0D0D6",
" +	c #D2D3D8",
".+	c #D6D7DC",
"++	c #795143",
"@+	c #AA6D51",
"#+	c #8E6245",
"$+	c #564241",
"%+	c #674F4E",
"&+	c #7D6258",
"*+	c #96785E",
"=+	c #A98B61",
"-+	c #BB9C63",
";+	c #D2B368",
">+	c #EACB73",
",+	c #EAD191",
"'+	c #D1C7B5",
")+	c #C0C0C4",
"!+	c #C0C0C5",
"~+	c #785042",
"{+	c #574341",
"]+	c #785F5D",
"^+	c #88706B",
"/+	c #9B7F67",
"(+	c #B18E4E",
"_+	c #C8A239",
":+	c #DEB83A",
"<+	c #E2C264",
"[+	c #D6C291",
"}+	c #CEC0A3",
"|+	c #CEC1A4",
"1+	c #D5C7AB",
"2+	c #DFD3BA",
"3+	c #D0D1D6",
"4+	c #7D5448",
"5+	c #B3735D",
"6+	c #C98066",
"7+	c #9D8B73",
"8+	c #D3AD8D",
"9+	c #8F7461",
"0+	c #79605D",
"a+	c #876F6C",
"b+	c #93796E",
"c+	c #9C7F66",
"d+	c #A58761",
"e+	c #B19260",
"f+	c #C7A861",
"g+	c #E2C263",
"h+	c #EFCE64",
"i+	c #EFCF64",
"j+	c #F1D168",
"k+	c #F4D573",
"l+	c #D0C7B5",
"m+	c #F4CCA1",
"n+	c #D9B58F",
"o+	c #937963",
"p+	c #574241",
"q+	c #8F7772",
"r+	c #8E7672",
"s+	c #AC9067",
"t+	c #D6B34E",
"u+	c #E9C33B",
"v+	c #E9C43A",
"w+	c #E9C339",
"x+	c #D5C191",
"y+	c #CEC1A3",
"z+	c #906346",
"A+	c #D49058",
"B+	c #D8B48F",
"C+	c #927862",
"D+	c #8F7773",
"E+	c #8D7673",
"F+	c #99806E",
"G+	c #AD9066",
"H+	c #B69861",
"I+	c #B79861",
"J+	c #B59761",
"K+	c #B69860",
"L+	c #E8BF9B",
"M+	c #DBB492",
"N+	c #BC9A7E",
"O+	c #866C5C",
"P+	c #5E4846",
"Q+	c #6A514F",
"R+	c #865E48",
"S+	c #BC8052",
"T+	c #B9775F",
"U+	c #966251",
"V+	c #78534A",
"W+	c #6D504C",
"X+	c #6E5553",
"Y+	c #8D7573",
"Z+	c #6A4F4B",
"`+	c #714E45",
" @	c #885847",
".@	c #A66850",
"+@	c #7A444A",
"@@	c #756B5A",
"#@	c #90544D",
"$@	c #6B4541",
"%@	c #725856",
"&@	c #775E5B",
"*@	c #7F6763",
"=@	c #8A726D",
"-@	c #6A4541",
";@	c #826A66",
">@	c #8D7570",
",@	c #9D5952",
"'@	c #94564F",
")@	c #84504A",
"!@	c #6A4845",
"~@	c #937B76",
"{@	c #98817B",
"]@	c #98807B",
"^@	c #927A75",
"/@	c #8F7671",
"(@	c #8E7671",
"_@	c #704E45",
":@	c #925E4B",
"<@	c #A66851",
"[@	c #B06E54",
"}@	c #A68F89",
"|@	c #72544C",
"1@	c #875F48",
"2@	c #584341",
"3@	c #937C76",
"4@	c #A58E88",
"5@	c #A9928C",
"6@	c #A18983",
"7@	c #9B847E",
"8@	c #9B837E",
"9@	c #8F7672",
"0@	c #89716D",
"a@	c #836A67",
"b@	c #A08983",
"c@	c #AE9790",
"d@	c #876F6B",
"e@	c #886F6B",
"f@	c #A79089",
"g@	c #B19A93",
"h@	c #B59E97",
"i@	c #89716C",
"j@	c #8A716D",
"k@	c #88706C",
"l@	c #785F5C",
"m@	c #876F6A",
"n@	c #A48C86",
"o@	c #AE9791",
"p@	c #7F6662",
"q@	c #7F6663",
"r@	c #A78F89",
"s@	c #775D5B",
"t@	c #826965",
"u@	c #795F5C",
"v@	c #B09993",
"w@	c #B7A099",
"x@	c #765D5A",
"y@	c #795F5D",
"z@	c #A38C86",
"A@	c #B8A19A",
"B@	c #705654",
"C@	c #806763",
"D@	c #705554",
"E@	c #6F5553",
"F@	c #907873",
"G@	c #725956",
"H@	c #735957",
"I@	c #745046",
"J@	c #6A5250",
"K@	c #6E5452",
"L@	c #70534B",
"M@	c #BB7656",
"N@	c #9A644D",
"O@	c #745146",
"P@	c #5F4947",
"Q@	c #5F4846",
"R@	c #755046",
"S@	c #6B504B",
"T@	c #715654",
"U@	c #684F4D",
"V@	c #57413F",
"W@	c #533F3C",
"X@	c #69514F",
"Y@	c #6E5552",
"Z@	c #875E48",
"`@	c #BB7757",
" #	c #4F3D3B",
".#	c #55413F",
"+#	c #E99E5E",
"@#	c #AB6D50",
"##	c #795240",
"$#	c #56433C",
"%#	c #614B48",
"&#	c #664E4D",
"*#	c #674E4D",
"=#	c #6A5857",
"-#	c #726767",
";#	c #7B686B",
">#	c #845D64",
",#	c #81545B",
"'#	c #705152",
")#	c #6D5452",
"!#	c #564240",
"~#	c #906443",
"{#	c #D38F57",
"]#	c #AC6F4F",
"^#	c #7B5639",
"/#	c #534430",
"(#	c #584342",
"_#	c #716868",
":#	c #959193",
"<#	c #AE989F",
"[#	c #BD8491",
"}#	c #B06C7A",
"|#	c #81535A",
"1#	c #92673D",
"2#	c #D49156",
"3#	c #AB6E4E",
"4#	c #7A5735",
"5#	c #614F24",
"6#	c #745C2D",
"7#	c #7B6446",
"8#	c #786C65",
"9#	c #8A878A",
"0#	c #A9A8AD",
"a#	c #BCABB2",
"b#	c #C5929F",
"c#	c #BB7786",
"d#	c #9C616D",
"e#	c #7F5259",
"f#	c #6E4F50",
"g#	c #654E4C",
"h#	c #654F4C",
"i#	c #80545A",
"j#	c #7F545A",
"k#	c #6F5051",
"l#	c #906739",
"m#	c #D39055",
"n#	c #7B5736",
"o#	c #765F19",
"p#	c #9F7E1C",
"q#	c #AE915B",
"r#	c #A89D91",
"s#	c #B3B3B7",
"t#	c #B0ABAF",
"u#	c #A48E94",
"v#	c #A87A84",
"w#	c #BA7686",
"x#	c #81555B",
"y#	c #926839",
"z#	c #B07151",
"A#	c #916241",
"B#	c #8C682B",
"C#	c #A5811B",
"D#	c #B49758",
"E#	c #BAA98E",
"F#	c #BDB2A4",
"G#	c #BCB2A4",
"H#	c #ACA499",
"I#	c #8C8985",
"J#	c #9A838A",
"K#	c #C796A2",
"L#	c #CE94A1",
"M#	c #AF7783",
"N#	c #935F69",
"O#	c #8B5760",
"P#	c #A46371",
"Q#	c #CB798D",
"R#	c #CF7C90",
"S#	c #AF6D7C",
"T#	c #8E5E66",
"U#	c #755354",
"V#	c #664D4A",
"W#	c #654C4A",
"X#	c #A8831D",
"Y#	c #9A722E",
"Z#	c #B07B46",
"`#	c #DB9558",
" $	c #BB7756",
".$	c #B17151",
"+$	c #A06C44",
"@$	c #8D692E",
"#$	c #967C3A",
"$$	c #B5985A",
"%$	c #C4A566",
"&$	c #B29968",
"*$	c #8E8473",
"=$	c #989295",
"-$	c #C6B6BD",
";$	c #DDBBC5",
">$	c #E1A2B1",
",$	c #DA8A9D",
"'$	c #CC7D8F",
")$	c #CB7A8D",
"!$	c #D78195",
"~$	c #E0889D",
"{$	c #E18EA1",
"]$	c #C98292",
"^$	c #8E6067",
"/$	c #55423F",
"($	c #9B7331",
"_$	c #C1864A",
":$	c #8C682E",
"<$	c #B28C0A",
"[$	c #B48B13",
"}$	c #AB8340",
"|$	c #9A7A6B",
"1$	c #A39499",
"2$	c #C2BEC3",
"3$	c #DBCAD1",
"4$	c #EDBDC9",
"5$	c #EFAFBF",
"6$	c #E3A5B4",
"7$	c #DA9AA3",
"8$	c #D88F8F",
"9$	c #E09698",
"0$	c #EEA9B6",
"a$	c #DFA7B6",
"b$	c #AC8F98",
"c$	c #847E83",
"d$	c #837E82",
"e$	c #9A7332",
"f$	c #826214",
"g$	c #885B1F",
"h$	c #965C47",
"i$	c #A96970",
"j$	c #B68A95",
"k$	c #BDB1B7",
"l$	c #CBC5CA",
"m$	c #DCCBD2",
"n$	c #E3CCD4",
"o$	c #DEC9D0",
"p$	c #D7BCB7",
"q$	c #D1A582",
"r$	c #D4A885",
"s$	c #DFC1BD",
"t$	c #DCCAD1",
"u$	c #CBC4C9",
"v$	c #C1C0C3",
"w$	c #C0BFC3",
"x$	c #BA785D",
"y$	c #98664A",
"z$	c #794F38",
"A$	c #6E3232",
"B$	c #883C4E",
"C$	c #B15F73",
"D$	c #C28190",
"E$	c #C39FA9",
"F$	c #C9B3BB",
"G$	c #D5C1C8",
"H$	c #DDD0D6",
"I$	c #E2DEE1",
"J$	c #E1DBD4",
"K$	c #DBCAAB",
"L$	c #DBC69D",
"M$	c #E1D2B4",
"N$	c #E4DCC0",
"O$	c #E4E1C1",
"P$	c #E4E4C0",
"Q$	c #723831",
"R$	c #875B36",
"S$	c #BD7D4C",
"T$	c #8E4E3C",
"U$	c #873B4F",
"V$	c #B05E72",
"W$	c #C7778B",
"X$	c #D08A9B",
"Y$	c #D595A5",
"Z$	c #DA9EAC",
"`$	c #E3BCC5",
" %	c #EFE4E7",
".%	c #F5F4F2",
"+%	c #F3EFE6",
"@%	c #F3E6CB",
"#%	c #F4DC9C",
"$%	c #F6DF79",
"%%	c #F6ED78",
"&%	c #F7F47A",
"*%	c #F7F57A",
"=%	c #8E5F54",
"-%	c #BD977B",
";%	c #DBB491",
">%	c #E9C09B",
",%	c #DC9359",
"'%	c #B6724A",
")%	c #A05A51",
"!%	c #A95B68",
"~%	c #B66478",
"{%	c #C16E82",
"]%	c #CB7489",
"^%	c #D37C91",
"/%	c #E0A3B0",
"(%	c #F0D2D8",
"_%	c #F7E8EB",
":%	c #F8E8EB",
"<%	c #FAE0D2",
"[%	c #FED397",
"}%	c #FFD365",
"|%	c #FFE263",
"1%	c #FFE965",
"2%	c #FFEA65",
"3%	c #A9606C",
"4%	c #A26C64",
"5%	c #BA9075",
"6%	c #E2BA93",
"7%	c #E99D5E",
"8%	c #DD9359",
"9%	c #C57E55",
"0%	c #A15B51",
"a%	c #8B4052",
"b%	c #914658",
"c%	c #A45467",
"d%	c #BE697D",
"e%	c #D28597",
"f%	c #E7B0BC",
"g%	c #E7B1BD",
"h%	c #EEB1B6",
"i%	c #F9B2A8",
"j%	c #FFB6A0",
"k%	c #FFBDA0",
"l%	c #FFC0A0",
"m%	c #A36C64",
"n%	c #C99E81",
"o%	c #E2BA94",
"p%	c #EFC79D",
"q%	c #9B5940",
"r%	c #9A5840",
"s%	c #9F5C50",
"t%	c #A86068",
"u%	c #B66B78",
"v%	c #C57684",
"w%	c #CC7B8A",
"x%	c #CC7C8A",
"y%	c #D48392",
"z%	c #E18F9F",
"A%	c #E694A4",
"B%	c #E393A3",
"C%	c #E291A2",
"D%	c #E38FA2",
"E%	c #A8646C",
"F%	c #9F6A63",
"G%	c #9A6B5D",
"H%	c #9B6D5E",
"I%	c #B68B74",
"J%	c #DCB392",
"K%	c #B16D53",
"L%	c #A9664F",
"M%	c #A4624C",
"N%	c #A3614C",
"O%	c #9A5D4B",
"P%	c #88574A",
"Q%	c #885851",
"R%	c #9C625E",
"S%	c #A56763",
"T%	c #A56764",
"U%	c #A96B69",
"V%	c #B07172",
"W%	c #AD7173",
"X%	c #A16B6D",
"Y%	c #9D636A",
"Z%	c #A15C6C",
"`%	c #8E5B4E",
" &	c #A86856",
".&	c #B56F5A",
"+&	c #B6705B",
"@&	c #BB755E",
"#&	c #C57D64",
"$&	c #95584C",
"%&	c #7E513E",
"&&	c #735038",
"*&	c #7B553F",
"=&	c #7F5942",
"-&	c #805942",
";&	c #78553E",
">&	c #694B35",
",&	c #644032",
"'&	c #6A3336",
")&	c #783C39",
"!&	c #724836",
"~&	c #7B563F",
"{&	c #9D5A51",
"]&	c #94574C",
"^&	c #865443",
"/&	c #714F36",
"(&	c #644D2D",
"_&	c #634D2D",
":&	c #634D2C",
"<&	c #664B31",
"[&	c #6B453B",
"}&	c #704140",
"|&	c #723C41",
"1&	c #925049",
"2&	c #905348",
"3&	c #855341",
"4&	c #704F34",
"5&	c #A2674B",
"6&	c #765434",
"7&	c #534721",
"8&	c #6E4D33",
"9&	c #714542",
"0&	c #91564A",
"          . . . . . . . . . . . . . . . . . + @ # $ % & * * * = = = - ; > > , > ' ) ! ! ! ! ! ! ! ! ! ! ! ! ! ! ! ! ! ! ~ { { ] ",
"                                    ^ / ( _ : < [ } | 1 2 3 2 2 2 2 3 2 1 | } [ 4 5 6 7 8 9 0 0 0 0 0 0 0 0 0 0 0 0 0 ~ { { { { ",
"                                    a b c d e f g h i j k l k k k k l m j i h g n o p q r s 0 0 0 0 0 0 0 0 0 0 0 0 0 ~ { { { { ",
"                            ^ / ( _ : < | 1 t u v w x y z A z z z z A z y x w v u t 1 | 4 5 6 7 8 9 0 0 0 0 0 0 0 0 0 ~ { { { { ",
"                            a b c d B f C j D E F G H I J K J J J J K J I H G F E D j C n L p q r s 0 0 0 0 0 0 0 0 0 ~ { { { { ",
"                        M / N < | O t u P Q R A S T U U U U U U U U U U U U T S A R Q P u t O | V 5 8 W 0 0 0 0 0 0 0 ~ { { { { ",
"                        / b B X C j D E Y Z J K `  .U U U U U U U U U U U U  .` K J Z Y E D j C n L r 8 0 0 0 0 0 0 0 ~ { { { { ",
"                    M / : < ..+.@.#.Q $.S T U U U U U U U U U U U U U U U U U U U U T S $.Q #.@.+...V %.8 W 0 0 0 0 0 ~ { { { { ",
"                    / b < X +.&.#.*.=.-.`  .U U U U U U U U U U U U U U U U U U U U  .` -.=.*.#.&.+.n V r 8 0 0 0 0 0 ~ { { { { ",
"                ^ a ;.e >.+.@.#.Y $.S T U U U U U U U U U U U U U U U U U U U U U U U U T S $.Y #.@.+.>.o ,.s 9 0 0 0 ~ { { { { ",
"                / b < X +.&.#.*.$.-.T  .U U U U U U U U U U U U U U U U U U U U U U U U  .T -.$.*.#.&.+.n V r 8 0 0 0 ~ { { { { ",
"                '.).[ !.~.{.].].z J U U U U U U U U U U U U U U U U U U U U U U U U U U U U J z ].].{.~.!.[ ^.6 0 0 0 ~ { { { { ",
"                /.d [ h ~.(.].].A J U U U U U U U U U U U U U U U U U U U U U U U U U U U U J A ].].(.~.h [ p 6 0 0 0 ~ { { { { ",
"                /.d [ _.:.{.].].A J U U U U U U U U U U U U U U U U U U U U U U U U U U U U J A ].].{.:._.[ p 6 0 0 0 ~ { { { { ",
"                '.).[ !.~.{.].].z J U U U U U U U U U U U U U U U U U U U U U U U U U U U U J z ].].{.~.!.[ ^.6 0 0 0 ~ { { { { ",
"                / b <.[.}.|.].1.$.2.T  .U U U U U U U U U U U U U U U U U U U U U U U U  .T 2.$.1.].|.}.3.4.r 8 0 0 0 ~ { { { { ",
"                5.a 6.7.8.9.].1.Y $.S T U U U U U U U U U U U U U U U U U U U U U U U U T S $.Y 1.].9.8.0.a.s b.0 0 0 ~ { { { { ",
"                    c.d.e.f.g.h.].].$.2.J J T  .U U U U U U U U U U U U U U U U  .T J J 2.$.].].h.g.f.e.i.j.0 0 0 0 0 ~ { { { { ",
"                    k.l.m.n.@.g.].].Y $.R A S T U U U U U U U U U U U U U U U U T S A R $.Y ].].g.@.n.m.o.j.0 0 0 0 0 ~ { { { { ",
"                p.q.r.s.t.u.v.w.g.x.1.1.].].$.2.J J J J J J J J J J J J J J J J 2.$.].].1.1.x.g.w.v.u.t.y.z.A.B.0 0 0 ~ { { { { ",
"                q.C.D.E.F.G.H.I.@.g.].].J.].Y $.z A z z z z z z z z z z z z A z $.Y ].J.].].g.@.I.H.G.F.K.L.M.A.0 0 0 ~ { { { { ",
"                N.O.P.Q.R.S.T.U.V.W.X.Y.Z.`. +.+1.1.].].].].].].].].].].].].1.1..+ +`.Z.Y.X.W.V.U.T.S.R.Q.P.++@+0 0 0 ~ { { { { ",
"                N.#+$+%+&+*+=+-+;+>+,+'+)+!+@.#.].].].].].].].].].].].].].].].].#.@.!+)+'+,+>+;+-+=+*+&+%+$+~+@+0 0 0 ~ { { { { ",
"                N.O.{+Q.]+^+/+(+_+:+<+[+}+|+1+2+X.Y.3+`.3+3+3+3+3+3+3+3+`.3+Y.X.2+1+|+}+[+<+:+_+(+/+^+]+Q.{+4+5+6+6+6+0 ~ { { 7+",
"! . . . . . . . 8+9+{+Q.0+a+b+c+d+e+f+g+h+i+j+k+,+l+~.!+~.~.~.~.~.~.~.~.!+~.l+,+k+j+i+h+g+f+e+d+c+b+a+0+Q.{+O.N.      6+~ { { 7+",
". m+m+m+m+m+m+m+n+o+p+Q.0+^+q+q+r+q+s+t+u+v+w+u+<+x+y+|+y+y+y+y+y+y+y+y+|+y+x+<+u+w+v+u+t+s+q+r+q+q+^+0+Q.p+z+A+        ~ { { 7+",
". m+m+m+m+m+m+m+B+C+{+Q.0+^+q+D+E+E+F+G+H+I+J+K+f+g+h+i+h+h+h+h+h+h+h+h+i+h+g+f+K+J+I+H+G+F+E+E+D+q+^+0+Q.{+O.N.        ~ { { 7+",
"! . . . . . L+M+N+O+P+Q+0+^+q+q+q+q+q+q+q+q+r+q+s+t+u+v+u+u+u+u+u+u+u+u+v+u+t+s+q+r+q+q+q+q+q+q+q+q+^+0+Q+P+R+S+q.p.  6+~ { { 7+",
"~ 6+6+6+6+6+T+U+V+W+Q+X+0+^+q+q+q+q+q+r+Y+Y+Y+Y+F+G+H+I+H+H+H+H+H+H+H+H+I+H+G+F+Y+Y+Y+Y+r+q+q+q+q+q+^+0+X+Q+Z+`+ @.@~ ~ { +@+@@@",
"{ { { { { { #@$@{+Q.%@&@*@=@q+q+q+q+q+q+q+q+q+q+q+q+q+q+q+q+q+q+q+q+q+q+q+q+q+q+q+q+q+q+q+q+q+q+q+q+=@*@&@%@Q.{+$@#@{ { +@+@+@+@",
"{ { { { { { #@-@{+Q.&@;@=@>@q+q+q+q+q+q+q+q+q+q+q+r+Y+Y+Y+Y+Y+Y+Y+Y+Y+Y+Y+Y+r+q+q+q+q+q+q+q+q+q+q+q+>@=@;@&@Q.{+-@#@{ { +@+@+@+@",
"{ { { { ,@'@)@!@P+Q+0+^+q+q+~@{@]@^@/@(@q+q+q+q+q+q+q+q+q+q+q+q+q+q+q+q+q+q+q+q+q+q+q+q+(@/@^@]@{@~@q+q+^+0+Q+P+_@:@<@[@{ +@+@+@",
"~ ~ ~ ~ .@ @`+Z+Q+X+0+^+q+q+{@}@}@{@q+q+q+q+q+q+q+q+q+q+q+q+q+q+q+q+q+q+q+q+q+q+q+q+q+q+q+q+{@}@}@{@q+q+^+0+X+Q+|@1@C.T+~ { { { ",
"0 0 0 0 @+++2@Q.%@&@*@=@>@=@3@4@5@6@7@8@]@^@q+q+q+q+q+q+9@/@9@9@9@9@/@9@q+q+q+q+q+q+^@]@8@7@6@5@4@3@=@>@=@*@&@%@Q.2@O.N.~ { { { ",
"0 0 0 0 @+~+{+Q.&@;@=@>@0@*@a@~@b@5@c@c@}@]@q+q+q+q+q+q+q+q+q+q+q+q+q+q+q+q+q+q+q+q+]@}@c@c@5@b@~@a@*@0@>@=@;@&@Q.{+#+N.~ { { { ",
"0 0 0 0 @+++{+Q.0+^+q+q+d@0+0+e@]@f@g@h@c@7@>@i@j@>@^@{@7@7@8@8@8@8@7@7@{@^@>@j@i@>@7@c@h@g@f@]@e@0+0+d@q+q+^+0+Q.{+O.N.~ { { { ",
"0 0 0 0 @+++{+Q.0+k@q+q+d@0+l@m@^@{@n@g@o@7@0@p@q@0@]@r@c@c@c@c@c@c@c@c@r@]@0@q@p@0@7@o@g@n@{@^@m@l@0+d@q+q+k@0+Q.{+O.N.~ { { { ",
"0 0 0 0 @+++{+Q.0+k@q+q+e@0+s@t@0@>@{@}@f@{@d@u@u@d@]@f@v@h@w@w@w@w@h@v@f@]@d@u@u@d@{@f@}@{@>@0@t@s@0+e@q+q+k@0+Q.{+O.N.~ { { { ",
"0 0 0 0 @+++{+Q.0+^+q+q+e@0+%@x@q@0@^@]@]@^@d@0+y@d@^@{@z@g@w@A@A@w@g@z@{@^@d@y@0+d@^@]@]@^@0@q@x@%@0+e@q+q+^+0+Q.{+O.N.~ { { { ",
"0 0 0 0 @+++{+Q.s@;@=@(@^+0+B@B@0+^+q+q+q+q+d@0+0+e@q+q+]@}@c@c@c@c@}@]@q+q+e@0+0+d@q+q+q+q+^+0+B@B@0+^+(@=@;@s@Q.{+O.N.~ { { { ",
"0 0 0 0 @+++2@Q.%@&@C@=@^+0+D@E@0+e@q+q+q+q+d@0+0+d@q+q+^@]@8@8@8@8@]@^@q+q+d@0+0+d@q+q+q+q+e@0+E@D@0+^+=@C@&@%@Q.2@O.N.~ { { { ",
"0 0 0 0 @+~+2@Q.B@B@&@;@;@&@B@B@&@;@=@(@F@q+^+0+s@t@=@(@q+q+q+q+q+q+q+q+(@=@t@s@0+^+q+F@(@=@;@&@B@B@&@;@;@&@B@B@Q.2@#+N.~ { { { ",
"0 0 0 0 @+++2@Q.B@B@G@s@s@H@B@B@%@s@*@=@q+q+e@0+%@x@*@=@q+q+9@/@/@9@q+q+=@*@x@%@0+e@q+q+=@*@s@%@B@B@H@s@s@G@B@B@Q.2@O.N.~ { { { ",
"0 0 0 0 A.M.I@Z+J@X+B@B@B@B@K@J@Q+X+&@;@^+^+;@s@B@B@&@;@=@(@q+q+q+q+(@=@;@&@B@B@s@;@^+^+;@&@X+Q+J@K@B@B@B@B@X+J@L@R+C.q.~ { { { ",
"0 0 0 0 M@A.N@O@P@J@B@B@B@B@Q+P@Q@Q+%@&@0+0+s@G@B@B@%@s@*@=@q+q+q+q+=@*@s@%@B@B@G@s@0+0+&@%@Q+Q@P@Q+B@B@B@B@J@P@R+S+q.p.~ { { { ",
"0 0 0 0 0 0 A.M.R@S@J@X+T@B@U@V@W@P@X@Y@B@B@B@B@K@J@Q+K@s@;@^+^+^+^+;@s@K@Q+J@K@B@B@B@B@Y@X@P@W@V@U@B@T@X+J@|@Z@C.q.    ~ { { { ",
"0 0 0 0 0 0 `@A.N@I@P@J@B@B@Q.{+ #.#P@Q+B@B@B@B@Q+P@Q@Q+%@&@0+0+0+0+&@%@Q+Q@P@Q+B@B@B@B@Q+P@.# #{+Q.B@B@J@P@R+S+q.+#    ~ { { { ",
"0 0 0 0 0 0 0 0 @###$#%#&#*#=#-#;#>#,#'#X@)#T@B@Q.!#!#Q.B@B@B@B@B@B@B@B@Q.!#!#Q.B@T@)#X@'#,#>#;#-#=#*#&#%#$#~#{#        ~ { { { ",
"0 0 0 0 0 0 0 0 ]#^#/#$#V@(#_#:#<#[#}#|#P@X@B@B@Q.{+{+Q.B@B@B@B@B@B@B@B@Q.{+{+Q.B@B@X@P@|#}#[#<#:#_#(#V@$#/#1#2#        ~ { { { ",
"0 0 0 0 0 0 0 0 3#4#5#6#7#8#9#0#a#b#c#d#e#f#g#h#'#i#j#k#Q.)#B@B@B@B@)#Q.k#j#i#'#h#g#f#e#d#c#b#a#0#9#8#7#6#5#l#m#        ~ { { { ",
"0 0 0 0 0 0 0 0 3#n#o#p#q#r#!.s#t#u#v#w#}#,#!#!#x#}#}#x#P@X@B@B@B@B@X@P@x#}#}#x#!#!#,#}#w#v#u#t#s#!.r#q#p#o#y#m#        ~ { { { ",
"0 0 0 0 0 0 0 0 z#A#B#C#D#E#F#G#H#I#J#K#L#M#N#O#P#Q#R#S#T#U#V#W#W#V#U#T#S#R#Q#P#O#N#M#L#K#J#I#H#G#F#E#D#X#Y#Z#`#        ~ { { { ",
"0 0 0 0 0 0 0 0  $.$+$@$#$$$%$%$&$*$=$-$;$>$,$'$)$!$~${$]$^$2@/$/$2@^$]${$~$!$)$'$,$>$;$-$=$*$&$%$%$$$#$($_$`#p.        ~ { { { ",
"~ 0 0 0 0 0 0 0 0 0 z#A#:$C#<$[$}$|$1$2$3$4$5$6$7$8$9$0$a$b$c$d$d$c$b$a$0$9$8$7$6$5$4$3$2$1$|$}$[$<$X#e$Z#`#            ~ { { { ",
"0 0 0 0 0 0 0 0 0 0  $z#+$B#f$g$h$i$j$k$l$m$n$o$p$q$r$s$t$u$v$w$w$v$u$t$s$r$q$p$o$n$m$l$k$j$i$h$g$f$Y#_$`#+#            ~ { { { ",
"0 6+6+6+6+6+6+6+6+6+6+6+x$y$z$A$B$C$D$E$F$G$H$I$J$K$L$M$N$O$P$P$P$P$O$N$M$L$K$J$I$H$G$F$E$D$C$B$Q$R$Z#`#              ! 0 { { { ",
"6+                      +#`#S$T$U$V$W$X$Y$Z$`$ %.%+%@%#%$%%%&%*%*%&%%%$%#%@%+%.% %`$Z$Y$X$W$V$U$=%-%;%>%. . . . . . . ! 6+{ { { ",
"                            ,%'%)%!%~%{%]%^%/%(%_%:%<%[%}%|%1%2%2%1%|%}%[%<%:%_%(%/%^%]%{%~%3%4%5%6%m+m+m+m+m+m+m+m+m+. 6+{ { { ",
"                            7%8%9%0%a%b%c%d%e%/%f%g%h%i%j%k%l%l%l%l%k%j%i%h%g%f%/%e%d%c%b%a%m%n%o%p%m+m+m+m+m+m+m+m+m+. 6+{ { { ",
"6+                              ,%'%q%r%s%t%u%v%w%x%y%z%A%B%C%D%D%C%B%A%z%y%x%w%v%u%E%F%G%H%I%J%. . . . . . . . . . . ! ~ { { { ",
"~ ~ ~ ~ ~ ~ ~ ~ ~ ~ ~ ~ ~ ~ ~ ~ K%L%M%N%O%P%Q%R%S%T%U%V%W%X%Y%Z%Z%Y%X%W%V%U%T%S%R%Q%`% &.&+&@&#&6+6+6+6+6+6+6+6+6+6+6+~ { +@+@+@",
"{ { { { { { { { { { { { { { { { { { { { $&%&&&*&=&-&-&=&;&>&,&'&)&!&&&~&=&-&-&=&*&&&%&$&{ { { { { { { { { { { { { { { { +@+@+@+@",
"{ { { { { { { { { { { { { { { { { { { { {&]&^&/&(&(&_&:&<&[&}&|&1&2&3&4&:&_&(&(&/&^&]&{&{ { { { { { { { { { { { { { { { +@+@+@+@",
"~ ~ ~ ~ ~ ~ ~ ~ ~ ~ ~ ~ ~ ~ ~ ~ ~ ~ ~ ~ ~ ~ 5&6&7&7&7&7&8&9&+@{ { { 0&8&7&7&7&7&8&0&{ { { { { { { { { { { { { { { { { { { +@+@+@"};
