/* XPM */
static char *result[] = {
/* columns rows colors chars-per-pixel */
"64 64 26 1 ",
"  c #572C27",
". c #67342E",
"X c #9E4846",
"o c #91484B",
"O c #9E5646",
"+ c #915148",
"@ c #915C48",
"# c #A14F43",
"$ c #A15D43",
"% c #A55549",
"& c #BE5D4F",
"* c #AB5F55",
"= c #AB5558",
"- c #BB5553",
"; c #9E6346",
": c #A16C43",
"> c #A56249",
", c #BE6E4F",
"< c #A57049",
"1 c #BE7F4F",
"2 c #AB6C55",
"3 c #BB6553",
"4 c #BB7553",
"5 c #C36456",
"6 c #C37456",
"7 c #C38456",
/* pixels */
"<<::;;  XX##%%  >>>>$$  ++OO$$  <<::;;  XX##%%  >>>>$$  ++OO,,..",
"<<::;;  XX##%%  >>>>$$  ++OO$$  <<::;;  XX##%%  >>>>$$  ++OO,,..",
"  ::;;@@  ##%%%%>>>>  OO++OO  %%  ::;;@@  ##%%%%>>>>  OO++OO..55",
"  ::;;@@  ##%%%%>>>>  OO++OO  %%  ::;;@@  ##%%%%>>>>  OO++OO..55",
"%%  ;;@@;;  %%%%>>  $$OO++  ##%%%%  ;;@@;;  %%%%>>  $$OO++  &&55",
"%%  ;;@@;;  %%%%>>  $$OO++  ##%%%%  ;;@@;;  %%%%>>  $$OO++  &&55",
"  $$  @@;;::  %%  >>$$OO  XX##%%  $$  @@;;::  %%  >>$$OO  XX&&55",
"  $$  @@;;::  %%  >>$$OO  XX##%%  $$  @@;;::  %%  >>$$OO  XX&&55",
">>$$OO  ;;::<<  >>>>$$  ooXX##  >>$$OO  ;;::<<  >>>>$$  ooXX&&..",
">>$$OO  ;;::<<  >>>>$$  ooXX##  >>$$OO  ;;::<<  >>>>$$  ooXX&&..",
"  $$OO++  ::<<<<>>>>  ##ooXX  <<  $$OO++  ::<<<<>>>>  ##ooXX..77",
"  $$OO++  ::<<<<>>>>  ##ooXX  <<  $$OO++  ::<<<<>>>>  ##ooXX..77",
"<<  OO++OO  <<<<>>  %%##oo  ::<<<<  OO++OO  <<<<>>  %%##oo  1177",
"<<  OO++OO  <<<<>>  %%##oo  ::<<<<  OO++OO  <<<<>>  %%##oo  1177",
"..,,..**33,,..77..5555&&..441177..,,..**33,,..77..5555&&..441177",
"..,,..**33,,..77..5555&&..441177..,,..**33,,..77..5555&&..441177",
"66,,33..33,,66..555555..224411..66,,33..33,,66..555555..224411..",
"66,,33..33,,66..555555..224411..66,,33..33,,66..555555..224411..",
"..,,33**..,,66665555..442244..66..,,33**..,,66665555..442244..66",
"..,,33**..,,66665555..442244..66..,,33**..,,66665555..442244..66",
"66..33**33..666655..114422..,,6666..33**33..666655..114422..,,66",
"66..33**33..666655..114422..,,6666..33**33..666655..114422..,,66",
"..&&..**33,,..66..771144..33,,66..&&..**33,,..66..771144..33,,66",
"..&&..**33,,..66..771144..33,,66..&&..**33,,..66..771144..33,,66",
"55&&--..33,,66..777711..**33,,..55&&--..33,,66..777711..**33,,..",
"55&&--..33,,66..777711..**33,,..55&&--..33,,66..777711..**33,,..",
"..&&--==..,,66667777..33**33..66..&&--==..,,66667777..33**33..66",
"..&&--==..,,66667777..33**33..66..&&--==..,,66667777..33**33..66",
"66..--==--..666677..,,33**..,,6666..--==--..666677..,,33**..,,66",
"66..--==--..666677..,,33**..,,6666..--==--..666677..,,33**..,,66",
"..66..==--&&..66..66,,33..33,,66..66..==--&&..66..66,,33..33,,66",
"..66..==--&&..66..66,,33..33,,66..66..==--&&..66..66,,33..33,,66",
"771144..--&&55..6666,,..**33,,..771144..--&&55..>>>>$$  ++OO$$  ",
"771144..--&&55..6666,,..**33,,..771144..--&&55..>>>>$$  ++OO$$  ",
"..114422..&&55556666..33**33..55..114422..&&5555>>>>  OO++OO  %%",
"..114422..&&55556666..33**33..55..114422..&&5555>>>>  OO++OO  %%",
"55..442244..555566..,,33**..&&5555..442244..5555>>  $$OO++  ##%%",
"55..442244..555566..,,33**..&&5555..442244..5555>>  $$OO++  ##%%",
"..,,..224411..55..66,,33..--&&55..,,..224411..55  >>$$OO  XX##%%",
"..,,..224411..55..66,,33..--&&55..,,..224411..55  >>$$OO  XX##%%",
"66,,33..441177..6666,,..==--&&..66,,33..441177..>>>>$$  ooXX##  ",
"66,,33..441177..6666,,..==--&&..66,,33..441177..>>>>$$  ooXX##  ",
"..,,33**..1177776666..&&==--..77..,,33**..117777>>>>  ##ooXX  <<",
"..,,33**..1177776666..&&==--..77..,,33**..117777>>>>  ##ooXX  <<",
"77..33**33..777766..55&&==..117777..33**33..7777>>  %%##oo  ::<<",
"77..33**33..777766..55&&==..117777..33**33..7777>>  %%##oo  ::<<",
"..,,..**33,,..77..5555&&..441177..,,..**33,,..77  %%%%##  ;;::<<",
"..,,..**33,,..77..5555&&..441177..,,..**33,,..77  %%%%##  ;;::<<",
"66,,33..33,,66..555555..224411..66,,33..33,,66..%%%%%%  @@;;::  ",
"66,,33..33,,66..555555..224411..66,,33..33,,66..%%%%%%  @@;;::  ",
"..,,33**..,,66665555..442244..66..,,33**..,,6666%%%%  ;;@@;;  >>",
"..,,33**..,,66665555..442244..66..,,33**..,,6666%%%%  ;;@@;;  >>",
"66..33**33..666655..114422..,,6666..33**33..6666%%  ::;;@@  $$>>",
"66..33**33..666655..114422..,,6666..33**33..6666%%  ::;;@@  $$>>",
"..&&..**33,,..66..771144..33,,66..&&..**33,,..66  <<::;;  OO$$>>",
"..&&..**33,,..66..771144..33,,66..&&..**33,,..66  <<::;;  OO$$>>",
"55&&--..33,,66..777711..**33,,..55&&--..33,,66..<<<<::  ++OO$$  ",
"55&&--..33,,66..777711..**33,,..55&&--..33,,66..<<<<::  ++OO$$  ",
"..&&--==..,,66667777..33**33..66..&&--==..,,6666<<<<  OO++OO  >>",
"..&&--==..,,66667777..33**33..66..&&--==..,,6666<<<<  OO++OO  >>",
"66..--==--..666677..,,33**..,,6666..--==--..6666<<  $$OO++  $$>>",
"66..--==--..666677..,,33**..,,6666..--==--..6666<<  $$OO++  $$>>",
"..66..==--&&..66..66,,33..33,,66..66..==--&&..66  >>$$OO  OO$$>>",
"..66..==--&&..66..66,,33..33,,66..66..==--&&..66  >>$$OO  OO$$>>"
};
