/* XPM */
static char *result[] = {
/* columns rows colors chars-per-pixel */
"64 64 83 1 ",
"  c black",
". c white",
"X c #A05B53",
"o c #7A444A",
"O c #302C2E",
"+ c #39314B",
"@ c #5E3643",
"# c #472D3C",
"$ c #BF7958",
"% c #454030",
"& c #EEA160",
"* c #756B5A",
"= c #394778",
"- c #564064",
"; c #A93B3B",
": c #AD6E22",
"> c #273C3D",
", c #397B44",
"< c #827094",
"1 c #AAA8CE",
"2 c #CDD8E9",
"3 c #3978A8",
"4 c #8E478C",
"5 c #E6482E",
"6 c #F47E1B",
"7 c #E39E2E",
"8 c #71AA34",
"9 c #4F546B",
"0 c #5E5648",
"q c #9D8B73",
"w c #44435B",
"e c #F4B41B",
"r c #8AEBF1",
"t c #DFF6F5",
"y c #2B251F",
"u c #C2B49F",
"i c #5A5353",
"p c #F4CCA1",
"a c #7D7071",
"s c #28CCDF",
"d c #B6D53C",
"f c #406B1D",
"g c #6DAF33",
"h c #CFC6B8",
"j c #260B2D",
"k c #A4714C",
"l c #EEC49F",
"z c #4289CF",
"x c #C0D0A8",
"c c #A0938E",
"v c #453F40",
"b c #89CF42",
"n c #569528",
"m c #481537",
"M c #F4D796",
"N c #B47055",
"B c #CD6093",
"V c #E7E1DA",
"C c #3C5956",
"Z c #437841",
"A c #F0E9BB",
"S c #ECC35F",
"D c #586050",
"F c #A8B098",
"G c #808870",
"H c #D0D8C0",
"J c #FFAEB6",
"K c #FF6600",
"L c #A93A3A",
"P c #E6482D",
"I c #F47E19",
"U c #204844",
"Y c #CF9A71",
"T c #2C2C2C",
"R c #AAAFAF",
"E c #808585",
"W c #565656",
"Q c #7B4131",
"! c #2C5676",
"~ c #4C8FB4",
"^ c #C98066",
"/ c black",
"( c #BFC9BF",
/* pixels */
"&&&&&llllllllllllllllllllllY$XXk$$$^YYYYYYYYYYYYYYYYYYYYYYYYNXXk",
"&&&&&&&&&&&&&&&&&&&&&&&&&&&&NXXXN$$$$$$$$$$$$$$$$$$$$$$$$$$NXXXX",
"&&&&&&&&&&&&&&&&&&&&&&&&&&&&NXXXN$$$$$$$$$$$$$$$$$$$$$$$$$$NXXXX",
"&&&&&&&&&&&&&&&&&&&&&&&&&&&&NXXXN$$$$$$$$$$$$$$$$$$$$$$$$$$NXXXX",
"&&&&&&&&&&&&&&&&&&&&&&&&&&&&NXXXN$$$$$$$$$$$$$$$$$$$$$$$$$$NXXXX",
"&&&&&&&&&&&&&&&&&&&&&&&&&&&&NXXXN$$$$$$$$$$$$$$$$$$$$$$$$$$NXXXX",
"&&&&&&&&&&&&&&&&&&&&&&&&&&&&NXXXN$$$$$$$$$$$$$$$$$$$$$$$$$$NXXXX",
"&&&&&&&&&&&&&&&&&&&&&&&&&&&&NXXXN$$$$$$$$$$$$$$$$$$$$$$$$$$NXXXX",
"&&&&&&&&&&&&&&&&&&&&&&&&&&&&NXXXN$$$$$$$$$$$$$$$$$$$$$$$$$$NXXXX",
"&&&&&&&&&&&&&&&&&&&&&&&&&&&&NXXXN$$$$$$$$$$$$$$$$$$$$$$$$$$NXXXX",
"&&&&&&&&&&&&&&&&&&&&&&&&&&&&NXXXN$$$$$$$$$$$$$$$$$$$$$$$$$$NXXXX",
"&&&&&&&&&&&&&&&&&&&&&&&&&&&&NXXXN$$$$$$$$$$$$$$$$$$$$$$$$$$NXXXX",
"&&&&&&&&&&&&&&&&&&&&&&&&&&&&NXXXN$$$$$$$$$$$$$$$$$$$$$$$$$$NXXXX",
"&&&&&&&&&&&&&&&&&&&&&&&&&&&&NXXXN$$$$$$$$$$$$$$$$$$$$$$$$$$NXXXX",
"&&&&&&&&&&&&&&&&&&&&&&&&&&&&NXXXN$$$$$$$$$$$$$$$$$$$$$$$$$$NXXXX",
"&&&&&&&&&&&&&&&&&&&&&&&&&&&&NXXXN$$$$$$$$$$$$$$$$$$$$$$$$$$NXXXX",
"&&&&&&&&&&&&&&&&&&&&&&&&&&&&NXXXN$$$$$$$$$$$$$$$$$$$$$$$$$$NXXXX",
"&&&&&&&&&&&&&&&&&&&&&&&&&&&&NXXXN$$$$$$$$$$$$$$$$$$$$$$$$$$NXXXX",
"&&&&&&&&&&&&&&&&&&&&&&&&&&&&NXXXN$$$$$$$$$$$$$$$$$$$$$$$$$$NXXXX",
"&&&&&&&&&&&&&&&&&&&&&&&&&&&&NXXXN$$$$$$$$$$$$$$$$$$$$$$$$$$NXXXX",
"&&&&&&&&&&&&&&&&&&&&&&&&&&&&NXXXN$$$$$$$$$$$$$$$$$$$$$$$$$$NXXXX",
"&&&&&&&&&&&&&&&&&&&&&&&&&&&&NXXXN$$$$$$$$$$$$$$$$$$$$$$$$$$NXXXX",
"&&&&&&&&&&&&&&&&&&&&&&&&&&&&NXXXN$$$$$$$$$$$$$$$$$$$$$$$$$$NXXXX",
"&&&&&&&&&&&&&&&&&&&&&&&&&&&Y$XXN$^^^^^^^^^^^^^^^^^^^^^^^^^^$NXXq",
"YllllllllllllllllllllllllllY^XXN^&&&&&&&&&&&&&&&&&&&&&&&&&&^NXXq",
"lppppppppppppppppppppppppppl^XXN&&&&&&&&&&&&&&&&&&&&&&&&&&&&NXXq",
"lppppppppppppppppppppppppppl^XXN&&&&&&&&&&&&&&&&&&&&&&&&&&&&NXXq",
"YllllllllllllllllllllllllllYNXXN^&&&&&&&&&&&&&&&&&&&&&&&&&&^NXXq",
"N^^^^^^^^^^^^^^^^^^^^^^^^^^NXooXNNNNNNNNNNNNNNNNNNNNNNNNNNNNXoo*",
"XXXXXXXXXXXXXXXXXXXXXXXXXXXXooooXXXXXXXXXXXXXXXXXXXXXXXXXXXXoooo",
"XXXXXXXXXXXXXXXXXXXXXXXXXXXXooooXXXXXXXXXXXXXXXXXXXXXXXXXXXXoooo",
"XXXXXXXXXXXXXXXXXXXXXXXXXXXXXooXNNNNNNNNNNNNNNNNNNNNNNNNNNNNXooo",
"NNNNNNNNNNNNNNNNNNNNNNNNNNNNXXXN^&&&&&&&&&&&&&&&&&&&&&&&&&&^NXXX",
"$$$$$$$$$$$$$$$$$$$$$$$$$$$NXXXN&&&&&&&&&&&&&&&&&&&&&&&&&&&&NXXX",
"$$$$$$$$$$$$$$$$$$$$$$$$$$$NXXXN&&&&&&&&&&&&&&&&&&&&&&&&&&&&NXXX",
"$$$$$$$$$$$$$$$$$$$$$$$$$$$NXXXN&&&&&&&&&&&&&&&&&&&&&&&&&&&&NXXX",
"$$$$$$$$$$$$$$$$$$$$$$$$$$$NXXXN&&&&&&&&&&&&&&&&&&&&&&&&&&&&NXXX",
"$$$$$$$$$$$$$$$$$$$$$$$$$$$NXXXN&&&&&&&&&&&&&&&&&&&&&&&&&&&&NXXX",
"$$$$$$$$$$$$$$$$$$$$$$$$$$$NXXXN&&&&&&&&&&&&&&&&&&&&&&&&&&&&NXXX",
"$$$$$$$$$$$$$$$$$$$$$$$$$$$NXXXN&&&&&&&&&&&&&&&&&&&&&&&&&&&&NXXX",
"$$$$$$$$$$$$$$$$$$$$$$$$$$$NXXXN&&&&&&&&&&&&&&&&&&&&&&&&&&&&NXXX",
"$$$$$$$$$$$$$$$$$$$$$$$$$$$NXXXN&&&&&&&&&&&&&&&&&&&&&&&&&&&&NXXX",
"$$$$$$$$$$$$$$$$$$$$$$$$$$$NXXXN&&&&&&&&&&&&&&&&&&&&&&&&&&&&NXXX",
"$$$$$$$$$$$$$$$$$$$$$$$$$$$NXXXN&&&&&&&&&&&&&&&&&&&&&&&&&&&&NXXX",
"$$$$$$$$$$$$$$$$$$$$$$$$$$$NXXXN&&&&&&&&&&&&&&&&&&&&&&&&&&&&NXXX",
"$$$$$$$$$$$$$$$$$$$$$$$$$$$NXXXN&&&&&&&&&&&&&&&&&&&&&&&&&&&&NXXX",
"$$$$$$$$$$$$$$$$$$$$$$$$$$$NXXXN&&&&&&&&&&&&&&&&&&&&&&&&&&&&NXXX",
"$$$$$$$$$$$$$$$$$$$$$$$$$$$NXXXN&&&&&&&&&&&&&&&&&&&&&&&&&&&&NXXX",
"$$$$$$$$$$$$$$$$$$$$$$$$$$$NXXXN&&&&&&&&&&&&&&&&&&&&&&&&&&&&NXXX",
"$$$$$$$$$$$$$$$$$$$$$$$$$$$NXXXN&&&&&&&&&&&&&&&&&&&&&&&&&&&&NXXX",
"$$$$$$$$$$$$$$$$$$$$$$$$$$$NXXXN&&&&&&&&&&&&&&&&&&&&&&&&&&&&NXXX",
"$$$$$$$$$$$$$$$$$$$$$$$$$$$NXXXN&&&&&&&&&&&&&&&&&&&&&&&&&&&&NXXX",
"$$$$$$$$$$$$$$$$$$$$$$$$$$$NXXXN&&&&&&&&&&&&&&&&&&&&&&&&&&&&NXXX",
"N$$$$$$$$$$$$$$$$$$$$$$$$$$NXXXN&&&&&&&&&&&&&&&&&&&&&&&&&&&&NXXX",
"$$$$$$$$$$$$$$$$$$$$$$$$$$$NXXXN&&&&&&&&&&&&&&&&&&&&&&&&&&&&NXXX",
"$^^^^^^^^^^^^^^^^^^^^^^^^^^$NXX$Y&&&&&&&&&&&&&&&&&&&&&&&&&&Y$XXX",
"^&&&&&&&&&&&&&&&&&&&&&&&&&&^NXX^YllllllllllllllllllllllllllY^XXX",
"&&&&&&&&&&&&&&&&&&&&&&&&&&&&NXX^lppppppppppppppppppppppppppl^XXX",
"&&&&&&&&&&&&&&&&&&&&&&&&&&&&NXX^lppppppppppppppppppppppppppl^XXX",
"^&&&&&&&&&&&&&&&&&&&&&&&&&&^NXXNYllllllllllllllllllllllllllYNXXX",
"NNNNNNNNNNNNNNNNNNNNNNNNNNNNXooXN^^^^^^^^^^^^^^^^^^^^^^^^^^NXooo",
"XXXXXXXXXXXXXXXXXXXXXXXXXXXXooooXXXXXXXXXXXXXXXXXXXXXXXXXXXXoooo",
"XXXXXXXXXXXXXXXXXXXXXXXXXXXXooooXXXXXXXXXXXXXXXXXXXXXXXXXXXXoooo",
"NNNNNNNNNNNNNNNNNNNNNNNNNNNNXooXXXXXXXXXXXXXXXXXXXXXXXXXXXXXXooo"
};
