/* XPM */
static char *result[] = {
/* columns rows colors chars-per-pixel */
"64 45 11 1 ",
"  c #472D3C",
". c #5E3643",
"X c #7A444A",
"o c #A05B53",
"O c #A4714C",
"+ c #B47055",
"@ c #BF7958",
"# c #C98066",
"$ c #CF9A71",
"% c #EEA160",
"& c None",
/* pixels */
"&&&&&&&&&&&&&&&&&&&&&&&&&&&&&&&&&&&&&&&&&&&&&&&&&&&&&&&&&&&&&&&&",
"&&&&&&&&&&&&&&&&&&&&&&&&&&&&&&&&&&&&&&&&&&&&&&&&&&&&&&&&&&&&&&&&",
"&&&&&&&&&&&&&&&&&&&&&&&&&&&&&&&&&&&&&&&&&&&&&&&&&&&&&&&&&&&&&&&&",
"&&&&&&&&&&&&&&&&&&&.............................&&&&&&&&&&&&&&&&",
"&&&&&&&&&&&&&&&&&&&......XXXXXXXXXXXXXXXXX......&&&&&&&&&&&&&&&&",
"&&&&&&&&&&&&&&&&&&&.XoXXo+++++++++++++++++oXooX.&&&&&&&&&&&&&&&&",
"&&&&&&&&&&&&&&&&&&&.XooXo@+++++++++++++++@oXooX.&&&&&&&&&&&&&&&&",
"&&&&&&&&&&&&&&&&&&&.XooXooooooooooooooooooXXooX.&&&&&&&&&&&&&&&&",
"&&&&&&&&&&&&&&&&&&&.XooXooooooooooooooooooXXooX.&&&&&&&&&&&&&&&&",
"&&&&&&&&&&&&&&&&&&&.X++o+@@@@@@@@@@@@@@@@@oo+@o.&&&&&&&&&&&&&&&&",
"&&&&&&&&&&&&&&&&&&&.X@+oo@@@@@@@@@@@@@@@@@oo+@o.&&&&&&&&&&&&&&&&",
"&&&&&&&&&&&&&&&&&&&.X@oXoooooooooooooooooooX+@o.&&&&&&&&&&&&&&&&",
"&&&&&&&&&&&&&&&&&&&.X@+XoooooooooooooooooooX+@o.&&&&&&&&&&&&&&&&",
"&&&&&&&&&&&&&&&&&&&.X@+o+@@@@@@@@@@@@@@@@@oo+@o.&&&&&&&&&&&&&&&&",
"&&&&&&&&&&&&&&&&&&&.X@+o+@@@@@@@@@@@@@@@@@oo+@o.&&&&&&&&&&&&&&&&",
"&&&.................X@OXoooooooooooooooooooX+@o.............&&&&",
"&&&......XXXXXXXXX..X@oXoooooooooooooooooooX+@o..XXXXX......&&&&",
"&&&..ooXX+++++++++o.X@+o++++++++++++++++++oo+@o.o@++++XXoo..&&&&",
"&&&..ooXo+@@@@@@@@O.o@+o+@@@@@@@@@@@@@@@@@+o@@o.o@@@@@XXoo..&&&&",
"&&&..ooXXoooooooooo.O%$@#%%%%%%%%%%%%%%%%%#+$%o.ooooooXXoo..&&&&",
"&&&.XooXooooooooooo o%$+#%%%%%%%%%%%%%%%%%@@#%o.ooooooXXoo..&&&&",
"&&&.X++oo@@@@@@@@@O X+oXo+++++++++++++++++oXo+X o@@@@@oo++X.&&&&",
"&&&.X@+oo@@@@@@@@@o XooXooooooooooooooooooXXoo. o@@@@+oo@@X.&&&&",
"&&&.X@+XXoooooooooo XooXooooX.       .ooooXXoo. XoooooXX+@X.&&&&",
"&&&.X@+XXoooooooooo XooXoooooXXXXXXXXXooooXXoo. ooooooXX+@X.&&&&",
"&&&.X@+oo@@@@@@@@@O XooXoooo@%%%%%%%%%@oooXXoo. o@@@@+oo@@X.&&&&",
"&&&.X@+o+@@@@@@@@@O XooXoooo#%%%%%%%%%@oooXXXo. o@@@@+oo@@X.&&&&",
"&&&.X@+XXoooooooooo .XXXXXooo+++++++++oooXXXXX. oooooooX+@X.&&&&",
"&&&.X@+XXoooooooooo .XXXXXooooooooooooooXXXXXX. XoooooXX+@X.&&&&",
"&&&.X++oo++++++++@o  .     .............        o@++++oo+@X.&&&&",
"&&&.X@@o+@@@@@@@@@+XXXXXXX...X. .XX.XXXXXXXXXXXX+@@@@@oo@@X.&&&&",
"&&&.X%%@@%%%%%%%%%%$#######+#$+.+##+############%%%%%%@@%%X.&&&&",
"&&&.X%$@@%%%%%%%%%%%%%%%%%#+#%+.+%#+#%%%%%%%%%%%%%%%%%@@%%X.&&&&",
"&&& .oooo+++++++++++++++++oXo+o X+oXo+++++++++++++++++oX+O. &&&&",
"&&& .ooXXoooooXXXXXXXXooooXXooo XooXoooooXXXXXXXXoooooXXoo. &&&&",
"&&& .ooXXoooo.........XoooXXooo XooXooooX ........ooooXXoo. &&&&",
"&&& .ooXXooooXXXXXXXXXXoooXXooo XooXooooXXXXXXXXXXooooXXoo. &&&&",
"&&& .ooXXooo+%%%%%%%%%#oooXXooo XooXoooo#%%%%%%%%%+oooXXoo. &&&&",
"&&& .ooXXooo+%%%%%%%%%#oooXXXoX XooXoooo#%%%%%%%%%@oooXXoo. &&&&",
"&&&  XXXXXooo+++++++++oooXXXXXX .XXXXXooo+++++++++ooXXXXXX. &&&&",
"&&&  XXXXXXoooooooooooooXXXXXX. .XXXXXooooooooooooooXXXXXX  &&&&",
"&&&        ..............             ...............       &&&&",
"&&&                                                         &&&&",
"&&&&&&&&&&&&&&&&&&&&&&&&&&&&&&&&&&&&&&&&&&&&&&&&&&&&&&&&&&&&&&&&",
"&&&&&&&&&&&&&&&&&&&&&&&&&&&&&&&&&&&&&&&&&&&&&&&&&&&&&&&&&&&&&&&&"
};
