/* XPM */
static char * Walls_xpm[] = {
"64 64 15 1",
" 	c #EEA160",
".	c #EEC49F",
"+	c #5E3643",
"@	c #CF9A71",
"#	c #B47055",
"$	c #A05B53",
"%	c #A4714C",
"&	c #BF7958",
"*	c #7A444A",
"=	c #C98066",
"-	c #9D8B73",
";	c #F4CCA1",
">	c #472D3C",
",	c #756B5A",
"'	c #302C2E",
"     ...++++++++++++++++++++++++++++++++++++++++++++++++@@@@#$$%",
"        ++++++++++++++++++++++++++++++++++++++++++++++++&&&#$$$$",
"        ++++***++******************************+++***+++&&&#$$$$",
"        +++*$$***$############################$***$$$*++&&&#$$$$",
"        +++*$$$**$&&&&&&&&&&&&&&&&&&&&&&&&&&&&$***$$$*++&&&#$$$$",
"        +++*$$$**$#&&&&&&&&&&&&&&&&&&&&&&&&&&#$***$$$*++&&&#$$$$",
"        +++*$$$***$$$$$$$$$$$$$$$$$$$$$$$$$$$$$***$$$*++&&&#$$$$",
"        +++*$$$***$$$$$$$$$$$$$$$$$$$$$$$$$$$$$***$$$*++&&&#$$$$",
"        +++*$$$***$$$$$$$$$$$$$$$$$$$$$$$$$$$$$***$$$*++&&&#$$$$",
"        +++$##$$$$############################$$$$##$*++&&&#$$$$",
"        +++$&&#$$#&&&&&&&&&&&&&&&&&&&&&&&&&&&&#$$#&&#*++&&&#$$$$",
"        +++$&&#$$#&&&&&&&&&&&&&&&&&&&&&&&&&&&&#$$#&&#*++&&&#$$$$",
"        +++$&&#$$$############################$$$$&&#*++&&&#$$$$",
"        +++$&&$***$$$$$$$$$$$$$$$$$$$$$$$$$$$$$**$&&#*++&&&#$$$$",
"        +++$&&$***$$$$$$$$$$$$$$$$$$$$$$$$$$$$$**$&&#*++&&&#$$$$",
"        +++$&&%$*$$###########################$**$&&#*++&&&#$$$$",
"        +++$&&#$$$&&&&&&&&&&&&&&&&&&&&&&&&&&&&#$$$&&#*++&&&#$$$$",
"        +++$&&#$$#&&&&&&&&&&&&&&&&&&&&&&&&&&&&#$$#&&#*++&&&#$$$$",
"        +++$&&#$$$#############################$$$&&#*++&&&#$$$$",
"        +++$&&$**$$$$$$$$$$$$$$$$$$$$$$$$$$$$$$**$&&#*++&&&#$$$$",
"        +++$&&$***$$$$$$$$$$$$$$$$$$$$$$$$$$$$$**$&&#*++&&&#$$$$",
"        +++$&&$**$$$$$$$$$$$$$$$$$$$$$$$$$$$$$$**$&&#*++&&&#$$$$",
"        +++$&&#$$$#############################$$$&&#*++&&&#$$$$",
"        +++$&&#$$#&&&&&&&&&&&&&&&&&&&&&&&&&&&&#$$#&&#*++===&#$$-",
"@.......+++%&&#$$#&&&&&&&&&&&&&&&&&&&&&&&&&&&&#$$#&&#*++   =#$$-",
".;;;;;;;++*#  =##&=                           =##&= =*++    #$$-",
".;;;;;;;++*&  @&&=                            @&&=  @$++    #$$-",
"@.......++*&  =&&=                            =&&=  =$++   =#$$-",
"#=======+>+%==&$$#============================&$$#&=&*>+####$**,",
"$$$$$$$$>>>*$$$***$$$$$$$$$$$$$$$$$$$$$$$$$$$$$***$$$+>>$$$$****",
"$$$$$$$$>>>*$$$***$$$$$$$$$$$$$$$$$$$$$$$$$$$$$***$$$+>>$$$$****",
"$$$$$$$$>>>*$$$***$$$$$$$***************$$$$$$$***$$$+>>####$***",
"########>>>*$$$***$$$$$$*+++++++++++++>+$$$$$$$***$$$+>>   =#$$$",
"&&&&&&&&>>>*$$$***$$$$$$+>>>>>>>>>>>>>'>*$$$$$$***$$$+>>    #$$$",
"&&&&&&&&>>>*$$$***$$$$$$$$$$$$$$$$$$$$$$$$$$$$$***$$$+>>    #$$$",
"&&&&&&&&>>>*$$$***$$$$$$=              =#$$$$$$***$$$+>>    #$$$",
"&&&&&&&&>>>*$$$***$$$$$#                &$$$$$$***$$$+>>    #$$$",
"&&&&&&&&>>>*$$$***$$$$$#=               #$$$$$$***$$$+>>    #$$$",
"&&&&&&&&>>>**********$$$#&&&&&&&&&&&&&&#$$$$*********+>>    #$$$",
"&&&&&&&&>>>+*********$$$$$$$$$$$$$$$$$$$$$$**********+>>    #$$$",
"&&&&&&&&>>>+*********$$$$$$$$$$$$$$$$$$$$$$**********+>>    #$$$",
"&&&&&&&&>>>++++++++++**********************++++++++++>>>    #$$$",
"&&&&&&&&>>>>>>>>>>>>>>>>>>>>>>>>>>>>>>>>>>>>>>>>>>>>>>>>    #$$$",
"&&&&&&&&>>>>>>>>>>>>>>>>>>>>>>>>>>>>>>>>>>>>>>>>>>>>>>>>    #$$$",
"&&&&&&&&+>+$##%$$$############################%$$$##%*>+    #$$$",
"&&&&&&&&++*&  =&&=                            =&&=  =*++    #$$$",
"&&&&&&&&++*&  @&&=                             &&=   $++    #$$$",
"&&&&&&&&+++#==&#%&============================&#%&==&*>+    #$$$",
"&&&&&&&&>>+$$$$**$$$$$$$$$$$$$$$$$$$$$$$$$$$$$$**$$#$+>>    #$$$",
"&&&&&&&&>>>*$$$***$$$$$$$$$$$$$$$$$$$$$$$$$$$$$***$$$+>>    #$$$",
"&&&&&&&&>>>*$$$***$$$$$$$$$$$$$$$$$$$$$$$$$$$$$***$$$+>>    #$$$",
"&&&&&&&&>>>*$$$***$$$$$$*+++++++++++++++$$$$$$$***$$$+>>    #$$$",
"&&&&&&&&>>>*$$$***$$$$$$+'>>>>>>>>>>>>'>*$$$$$$***$$$+>>    #$$$",
"#&&&&&&&>>>*$$$***$$$$$$****************$$$$$$$***$$$+>>    #$$$",
"&&&&&&&&>>>*$$$***$$$$$$&===============#$$$$$$***$$$+>>    #$$$",
"&=======>>>*$$$***$$$$$#                &$$$$$$***$$$+>>   @&$$$",
"=       >>>*$$$***$$$$$#=               &$$$$$$***$$$+>>...@=$$$",
"        >>>*********$$$$&&&&&&&&&&&&&&&&#$$$*********+>>;;;.=$$$",
"        >>>+*********$$$$$$$$$$$$$$$$$$$$$$**********+>>;;;.=$$$",
"=       >>>+*********$$$$$$$$$$$$$$$$$$$$$$**********+>>...@#$$$",
"########>>>+++++++++************************+++++++++>>>===#$***",
"$$$$$$$$>>>>>>>>>>>>>>>>>>>>>>>>>>>>>>>>>>>>>>>>>>>>>>>>$$$$****",
"$$$$$$$$>>>>>>>>>>>>>>>>>>>>>>>>>>>>>>>>>>>>>>>>>>>>>>>>$$$$****",
"########>>>>>>>>>>>>>>>>>>>>>>>>>>>>>>>>>>>>>>>>>>>>>>>>$$$$$***"};
